<svg xmlns="http://www.w3.org/2000/svg" role="img" viewBox="-2.62 45.63 305.24 91.74"><title>cpd24_logo_400x245.svg</title><path d="M 179.027344 111.378906 C 179.027344 114.574219 180.5625 117.222656 182.707031 118.277344 C 184.890625 119.367188 187.070312 119.261719 189.011719 119.261719 C 190.953125 119.261719 216.34375 119.261719 218.523438 118.582031 C 219.613281 118.242188 220.738281 117.769531 221.660156 116.816406 C 222.578125 115.863281 223.191406 114.4375 223.191406 112.976562 L 223.191406 107.164062 C 223.191406 105.734375 222.035156 104.578125 220.601562 104.578125 C 219.171875 104.578125 218.011719 105.734375 218.011719 107.164062 L 218.011719 112.976562 C 218.011719 113.246094 218.011719 113.144531 217.945312 113.210938 C 217.875 113.28125 217.570312 113.484375 216.992188 113.65625 C 215.867188 113.996094 190.785156 114.097656 188.976562 114.097656 C 187.070312 114.097656 185.503906 113.925781 184.957031 113.65625 C 184.378906 113.382812 184.140625 113.382812 184.140625 111.34375 L 184.140625 107.128906 C 184.140625 105.699219 182.980469 104.542969 181.550781 104.542969 C 180.117188 104.542969 178.960938 105.699219 178.960938 107.128906 Z M 179.027344 111.378906"/><path stroke="#000" stroke-linejoin="round" stroke-width="1.34" d="M339.501949 424.802449L328.09428 424.802449C326.594899 424.802449 325.296465 423.701183 325.296465 422.401079L325.296465 401.706469C325.296465 400.406364 326.502153 399.305099 328.09428 399.305099L339.501949 399.305099C341.001331 399.305099 342.299765 400.406364 342.299765 401.706469L342.299765 422.401079C342.299765 423.701183 341.094076 424.802449 339.501949 424.802449zM339.501949 578.000681L328.09428 578.000681C326.594899 578.000681 325.296465 576.899415 325.296465 575.599311L325.296465 554.904701C325.296465 553.604596 326.502153 552.503331 328.09428 552.503331L339.501949 552.503331C341.001331 552.503331 342.299765 553.604596 342.299765 554.904701L342.299765 575.599311C342.299765 576.899415 341.094076 578.000681 339.501949 578.000681zM339.501949 578.000681" transform="matrix(0 -.2527 .25539 0 76.3 189.373)"/><path stroke="#f9f9f9" stroke-linecap="round" stroke-linejoin="round" stroke-miterlimit="15.118" stroke-width="1.89" d="M300.899866 469.004819L296.602007 469.004819C295.498813 469.09652 294.602468 469.394549 294.499044 470.804454L294.499044 476.799416M294.602468 480.50185L294.602468 482.003456M300.899866 583.894894L296.602007 583.894894C295.498813 583.998058 294.602468 584.296086 294.499044 585.694529L294.499044 591.700954M294.602468 595.403388L294.602468 596.904994" transform="matrix(0 -.33992 .34078 0 18.758 206.997)"/><path fill="none" stroke="#f9f9f9" stroke-linecap="round" stroke-linejoin="round" stroke-miterlimit="15.118" stroke-width="1.89" d="M 289.695554 473.704503 L 279.594436 473.796204 C 267.103064 473.796204 261.001023 484.605476 261.001023 500.297835 M 261.001023 504.596327 L 261.001023 506.097933 M 290.201184 588.204848 L 278.904939 588.204848" transform="matrix(0 -.33992 .34078 0 18.758 206.997)"/><path d="M 196.78125 119.160156 L 196.78125 114.097656 C 196.78125 112.90625 198.996094 111.957031 201.6875 111.957031 C 204.414062 111.957031 206.597656 112.90625 206.597656 114.097656 L 206.597656 119.160156 C 206.597656 120.351562 204.382812 121.304688 201.6875 121.304688 C 198.996094 121.304688 196.78125 120.316406 196.78125 119.160156 Z M 196.78125 119.160156"/><path fill="#a51d2d" d="M 192.433594 129.214844 L 200.757812 113.652344 C 201.046875 113.109375 202.1875 113.136719 203.273438 113.707031 C 204.355469 114.28125 205.023438 115.207031 204.734375 115.75 L 196.410156 131.3125 C 196.121094 131.855469 194.980469 131.828125 193.894531 131.257812 C 192.78125 130.667969 192.144531 129.757812 192.433594 129.214844 Z M 192.433594 129.214844"/><path fill="none" stroke="#f9f9f9" stroke-linecap="round" stroke-linejoin="round" stroke-miterlimit="15.118" stroke-width="1.89" d="M 362.898676 400.004534 L 393.498633 400.202721 L 395.694576 400.299451 M 399.696875 400.296936 L 400.503542 400.298338" transform="matrix(.15928 -.3005 .30127 .15888 14.803 174.964)"/><path d="M 202.234375 114.707031 C 202.746094 114.84375 202.371094 115.21875 202.746094 115.59375 C 203.121094 115.964844 203.496094 115.59375 203.632812 116.101562 C 203.769531 116.613281 203.257812 116.476562 203.121094 116.984375 C 202.984375 117.496094 203.496094 117.632812 203.121094 118.003906 C 202.746094 118.378906 202.644531 117.871094 202.097656 118.003906 C 201.585938 118.140625 201.722656 118.652344 201.210938 118.515625 C 200.699219 118.378906 201.074219 118.003906 200.699219 117.632812 C 200.324219 117.257812 199.953125 117.632812 199.816406 117.121094 C 199.679688 116.613281 200.191406 116.746094 200.324219 116.238281 C 200.460938 115.726562 199.953125 115.59375 200.324219 115.21875 C 200.699219 114.84375 200.804688 115.355469 201.347656 115.21875 C 201.859375 115.082031 201.6875 114.574219 202.234375 114.707031 Z M 202.234375 114.707031"/><path fill="#1a1a1a" d="M 77.355469 61.652344 C 77.355469 58.457031 78.886719 55.808594 81.035156 54.753906 C 83.214844 53.664062 85.398438 53.769531 87.339844 53.769531 C 89.28125 53.769531 114.671875 53.769531 116.851562 54.449219 C 117.941406 54.789062 119.066406 55.261719 119.988281 56.214844 C 120.90625 57.167969 121.519531 58.59375 121.519531 60.054688 L 121.519531 65.871094 C 121.519531 67.296875 120.363281 68.453125 118.929688 68.453125 C 117.5 68.453125 116.339844 67.296875 116.339844 65.871094 L 116.339844 60.054688 C 116.339844 59.785156 116.339844 59.886719 116.273438 59.820312 C 116.203125 59.75 115.898438 59.546875 115.316406 59.375 C 114.195312 59.035156 89.113281 58.933594 87.304688 58.933594 C 85.398438 58.933594 83.828125 59.105469 83.285156 59.375 C 82.707031 59.648438 82.464844 59.648438 82.464844 61.6875 L 82.464844 65.902344 C 82.464844 67.332031 81.308594 68.488281 79.875 68.488281 C 78.445312 68.488281 77.285156 67.332031 77.285156 65.902344 Z M 77.355469 61.652344"/><path stroke="#000" stroke-linejoin="round" stroke-width=".899" d="M-361.30577 131.997274L-372.697981 131.997274C-374.197363 131.997274-375.495797 130.896009-375.495797 129.595904L-375.495797 108.901295C-375.495797 107.60119-374.305566 106.499925-372.697981 106.499925L-361.30577 106.499925C-359.806388 106.499925-358.492497 107.60119-358.492497 108.901295L-358.492497 129.595904C-358.492497 130.896009-359.698185 131.997274-361.30577 131.997274zM-361.30577 285.103734L-372.697981 285.103734C-374.197363 285.103734-375.495797 284.002469-375.495797 282.702364L-375.495797 261.992459C-375.495797 260.70765-374.305566 259.606385-372.697981 259.606385L-361.30577 259.606385C-359.806388 259.606385-358.492497 260.70765-358.492497 261.992459L-358.492497 282.702364C-358.492497 284.094241-359.698185 285.103734-361.30577 285.103734zM-361.30577 285.103734" transform="matrix(0 .2527 .25539 0 49.395 160.758)"/><path fill="none" stroke="#f9f9f9" stroke-linecap="round" stroke-linejoin="round" stroke-miterlimit="15.118" stroke-width="1.89" d="M-220.100564 249.594673L-224.398423 249.594673C-225.501617 249.697836-226.397962 249.995865-226.501386 251.394308L-226.501386 257.400733M-226.397962 261.000003L-226.397962 262.501609M-220.100564 364.49621L-224.398423 364.49621C-225.501617 364.599374-226.397962 364.897403-226.501386 366.295845L-226.501386 372.30227M-226.397962 375.90154L-226.397962 377.403147M-231.304876 254.294356L-241.394503 254.39752C-253.897366 254.39752-259.999407 265.19533-259.999407 280.899152M-259.999407 285.197643L-259.999407 286.699249M-230.799246 368.794701L-242.095491 368.794701" transform="matrix(0 .33992 .34078 0 -8.147 143.133)"/><path fill="#1a1a1a" d="M 95.109375 53.871094 L 95.109375 58.933594 C 95.109375 60.125 97.324219 61.078125 100.015625 61.078125 C 102.742188 61.078125 104.925781 60.125 104.925781 58.933594 L 104.925781 53.871094 C 104.925781 52.679688 102.710938 51.726562 100.015625 51.726562 C 97.324219 51.726562 95.109375 52.679688 95.109375 53.871094 Z M 95.109375 53.871094"/><path fill="#a51d2d" d="M 114.925781 51.511719 L 97.46875 54.511719 C 96.871094 54.625 96.527344 55.691406 96.742188 56.921875 C 96.957031 58.148438 97.621094 59.046875 98.21875 58.933594 L 115.671875 55.933594 C 116.273438 55.824219 116.617188 54.753906 116.402344 53.527344 C 116.1875 52.296875 115.523438 51.402344 114.925781 51.511719 Z M 114.925781 51.511719"/><path fill="none" stroke="#f9f9f9" stroke-linecap="round" stroke-linejoin="round" stroke-miterlimit="15.118" stroke-width="1.89" d="M -303.00079 260.802807 L -289.601971 233.295133 L -288.600829 231.304611 M -286.898508 227.702612 L -286.503758 226.993009" transform="matrix(-.09393 .32675 .32758 .0937 1.038 126.793)"/><path d="M 100.527344 58.289062 C 101.039062 58.152344 100.664062 57.777344 101.039062 57.40625 C 101.414062 57.03125 101.789062 57.40625 101.925781 56.894531 C 102.0625 56.386719 101.550781 56.519531 101.414062 56.011719 C 101.277344 55.5 101.789062 55.367188 101.414062 54.992188 C 101.039062 54.617188 100.9375 55.128906 100.390625 54.992188 C 99.847656 54.855469 100.015625 54.347656 99.503906 54.480469 C 98.996094 54.617188 99.371094 54.992188 98.996094 55.367188 C 98.621094 55.738281 98.246094 55.367188 98.109375 55.875 C 97.972656 56.386719 98.484375 56.25 98.621094 56.757812 C 98.757812 57.269531 98.246094 57.40625 98.621094 57.777344 C 98.996094 58.152344 99.097656 57.644531 99.640625 57.777344 C 100.1875 57.949219 100.015625 58.425781 100.527344 58.289062 Z M 100.527344 58.289062"/><path fill="#a51d2d" d="M 3.324219 67.769531 L 3.324219 105.261719 L 92.949219 105.261719 L 92.949219 67.769531 L 89.675781 67.769531 L 89.675781 68.855469 L 6.59375 68.855469 L 6.59375 67.769531 Z M 4.242188 68.617188 L 5.640625 68.617188 L 5.640625 69.976562 L 4.242188 69.976562 Z M 90.664062 68.617188 L 92.0625 68.617188 L 92.0625 69.976562 L 90.664062 69.976562 Z M 7.71875 70.726562 L 87.835938 70.726562 C 88.007812 70.726562 88.144531 70.863281 88.144531 71.03125 C 88.144531 71.203125 88.007812 71.335938 87.835938 71.335938 L 7.71875 71.335938 C 7.410156 71.335938 7.207031 71.574219 7.207031 71.847656 L 7.207031 100.742188 C 7.207031 100.910156 7.070312 101.046875 6.902344 101.046875 C 6.730469 101.046875 6.59375 100.910156 6.59375 100.742188 L 6.59375 71.847656 C 6.558594 71.269531 7.070312 70.726562 7.71875 70.726562 Z M 19.167969 72.765625 C 19.339844 72.765625 19.476562 72.902344 19.476562 73.070312 L 19.476562 100.605469 C 19.476562 100.773438 19.339844 100.910156 19.167969 100.910156 C 19 100.910156 18.863281 100.773438 18.863281 100.605469 L 18.863281 73.070312 C 18.828125 72.902344 18.964844 72.765625 19.167969 72.765625 Z M 29.019531 72.765625 C 29.1875 72.765625 29.324219 72.902344 29.324219 73.070312 L 29.324219 100.605469 C 29.324219 100.773438 29.1875 100.910156 29.019531 100.910156 C 28.847656 100.910156 28.710938 100.773438 28.710938 100.605469 L 28.710938 73.070312 C 28.675781 72.902344 28.847656 72.765625 29.019531 72.765625 Z M 38.867188 72.765625 C 39.035156 72.765625 39.171875 72.902344 39.171875 73.070312 L 39.171875 100.605469 C 39.171875 100.773438 39.035156 100.910156 38.867188 100.910156 C 38.695312 100.910156 38.558594 100.773438 38.558594 100.605469 L 38.558594 73.070312 C 38.558594 72.902344 38.695312 72.765625 38.867188 72.765625 Z M 48.714844 72.765625 C 48.886719 72.765625 49.019531 72.902344 49.019531 73.070312 L 49.019531 100.605469 C 49.019531 100.773438 48.886719 100.910156 48.714844 100.910156 C 48.542969 100.910156 48.40625 100.773438 48.40625 100.605469 L 48.40625 73.070312 C 48.40625 72.902344 48.542969 72.765625 48.714844 72.765625 Z M 58.597656 72.765625 C 58.769531 72.765625 58.902344 72.902344 58.902344 73.070312 L 58.902344 100.605469 C 58.902344 100.773438 58.769531 100.910156 58.597656 100.910156 C 58.425781 100.910156 58.289062 100.773438 58.289062 100.605469 L 58.289062 73.070312 C 58.257812 72.902344 58.394531 72.765625 58.597656 72.765625 Z M 68.445312 72.765625 C 68.617188 72.765625 68.753906 72.902344 68.753906 73.070312 L 68.753906 100.605469 C 68.753906 100.773438 68.617188 100.910156 68.445312 100.910156 C 68.277344 100.910156 68.140625 100.773438 68.140625 100.605469 L 68.140625 73.070312 C 68.105469 72.902344 68.277344 72.765625 68.445312 72.765625 Z M 78.292969 72.765625 C 78.464844 72.765625 78.601562 72.902344 78.601562 73.070312 L 78.601562 100.605469 C 78.601562 100.773438 78.464844 100.910156 78.292969 100.910156 C 78.125 100.910156 77.988281 100.773438 77.988281 100.605469 L 77.988281 73.070312 C 77.988281 72.902344 78.125 72.765625 78.292969 72.765625 Z M 4.242188 102.8125 L 5.640625 102.8125 L 5.640625 104.175781 L 4.242188 104.175781 Z M 90.664062 102.8125 L 92.0625 102.8125 L 92.0625 104.175781 L 90.664062 104.175781 Z M 90.664062 102.8125"/><path fill="#fff" fill-opacity=".992" d="M8.328125 77.289062L14.570312 77.289062 14.570312 77.769531 8.328125 77.769531zM9.648438 74L9.648438 74.355469 9.347656 74.355469 9.347656 74 8.570312 74 8.570312 73.757812 9.410156 72.683594 9.710938 72.683594 9.710938 73.699219 9.890625 73.699219 9.890625 74zM8.929688 73.757812L9.347656 73.757812 9.347656 73.21875zM11.390625 74.238281L11.089844 74.417969 10.429688 74.417969 10.128906 74.238281 10.128906 72.859375 10.429688 72.683594 11.089844 72.683594 11.390625 72.859375zM10.550781 72.980469L10.550781 74.117188 11.089844 74.117188 11.089844 72.980469zM11.808594 73.28125L11.808594 72.980469 12.230469 72.742188 12.527344 72.742188 12.527344 74.117188 12.890625 74.117188 12.890625 74.417969 11.808594 74.417969 11.808594 74.117188 12.167969 74.117188 12.167969 73.101562zM14.390625 74.238281L14.089844 74.417969 13.429688 74.417969 13.128906 74.238281 13.128906 72.859375 13.429688 72.683594 14.089844 72.683594 14.390625 72.859375zM13.550781 72.980469L13.550781 74.117188 14.089844 74.117188 14.089844 72.980469zM9.648438 76.210938L9.648438 76.570312 9.347656 76.570312 9.347656 76.210938 8.570312 76.210938 8.570312 75.972656 9.410156 74.894531 9.710938 74.894531 9.710938 75.914062 9.890625 75.914062 9.890625 76.210938zM8.929688 75.972656L9.347656 75.972656 9.347656 75.433594zM10.550781 76.273438L11.328125 76.273438 11.328125 76.570312 10.1875 76.570312 10.1875 75.792969 10.488281 75.613281 11.03125 75.613281 11.03125 75.195312 10.550781 75.195312 10.550781 75.433594 10.1875 75.433594 10.1875 75.074219 10.488281 74.894531 11.089844 74.894531 11.390625 75.074219 11.390625 75.792969 11.089844 75.972656 10.550781 75.972656zM12.347656 76.03125L12.347656 75.734375 12.949219 75.734375 12.949219 76.453125 12.648438 76.632812 11.988281 76.632812 11.6875 76.453125 11.6875 75.074219 11.988281 74.894531 12.648438 74.894531 12.949219 75.074219 12.949219 75.433594 12.589844 75.433594 12.589844 75.195312 12.050781 75.195312 12.050781 76.332031 12.589844 76.332031 12.589844 76.03125zM13.308594 75.496094L13.308594 75.195312 13.730469 74.957031 14.027344 74.957031 14.027344 76.332031 14.390625 76.332031 14.390625 76.632812 13.308594 76.632812 13.308594 76.332031 13.667969 76.332031 13.667969 75.316406zM81.425781 100.324219L87.664062 100.324219 87.664062 100.804688 81.425781 100.804688zM82.085938 96.078125L82.085938 96.554688 82.265625 96.4375 82.625 96.4375 82.925781 96.617188 82.925781 97.332031 82.625 97.511719 82.027344 97.511719 81.726562 97.332031 81.726562 95.957031 82.027344 95.777344 82.625 95.777344 82.925781 95.957031 82.925781 96.316406 82.566406 96.316406 82.566406 96.078125zM82.085938 96.734375L82.085938 97.214844 82.566406 97.214844 82.566406 96.734375zM84.304688 97.09375L84.304688 97.453125 83.945312 97.453125 83.945312 97.09375 83.164062 97.09375 83.164062 96.855469 84.003906 95.777344 84.304688 95.777344 84.304688 96.796875 84.484375 96.796875 84.484375 97.09375zM83.585938 96.796875L84.003906 96.796875 84.003906 96.257812zM85.144531 97.15625L85.625 97.15625 85.625 96.734375 85.144531 96.734375zM85.144531 96.4375L85.625 96.4375 85.625 96.015625 85.144531 96.015625zM85.746094 97.453125L85.085938 97.453125 84.84375 97.273438 84.84375 96.675781 85.027344 96.554688 84.84375 96.4375 84.84375 95.898438 85.144531 95.71875 85.746094 95.71875 86.046875 95.898438 86.046875 96.4375 85.867188 96.554688 86.046875 96.675781 86.046875 97.273438zM86.765625 97.15625L87.246094 97.15625 87.246094 96.734375 86.765625 96.734375zM86.765625 96.4375L87.246094 96.4375 87.246094 96.015625 86.765625 96.015625zM87.304688 97.453125L86.644531 97.453125 86.40625 97.273438 86.40625 96.675781 86.585938 96.554688 86.40625 96.4375 86.40625 95.898438 86.707031 95.71875 87.304688 95.71875 87.605469 95.898438 87.605469 96.4375 87.425781 96.554688 87.605469 96.675781 87.605469 97.273438zM82.566406 99.367188L82.566406 98.890625 82.386719 99.007812 82.027344 99.007812 81.726562 98.828125 81.726562 98.113281 82.027344 97.933594 82.625 97.933594 82.925781 98.113281 82.925781 99.488281 82.625 99.667969 82.027344 99.667969 81.726562 99.488281 81.726562 99.128906 82.085938 99.128906 82.085938 99.367188zM82.566406 98.710938L82.566406 98.230469 82.085938 98.230469 82.085938 98.710938zM84.546875 99.488281L84.246094 99.667969 83.585938 99.667969 83.285156 99.488281 83.285156 98.113281 83.585938 97.933594 84.246094 97.933594 84.546875 98.113281zM83.644531 98.230469L83.644531 99.367188 84.1875 99.367188 84.1875 98.230469zM85.265625 99.367188L85.746094 99.367188 85.746094 98.949219 85.265625 98.949219zM85.265625 98.652344L85.746094 98.652344 85.746094 98.230469 85.265625 98.230469zM85.804688 99.667969L85.144531 99.667969 84.90625 99.488281 84.90625 98.890625 85.085938 98.769531 84.90625 98.652344 84.90625 98.113281 85.207031 97.933594 85.804688 97.933594 86.105469 98.113281 86.105469 98.652344 85.925781 98.769531 86.105469 98.890625 86.105469 99.488281zM87.484375 99.25L87.484375 99.609375 87.125 99.609375 87.125 99.25 86.34375 99.25 86.34375 99.007812 87.183594 97.933594 87.484375 97.933594 87.484375 98.949219 87.664062 98.949219 87.664062 99.25zM86.765625 99.007812L87.183594 99.007812 87.183594 98.472656zM86.765625 99.007812"/><path fill="none" stroke="#f9f9f9" stroke-linecap="round" stroke-linejoin="round" stroke-miterlimit="15.118" stroke-width="1.89" d="M 309.497175 -118.305735 C 309.497175 -113.100039 309.497175 -33.601134 309.497175 -33.601134 C 309.497175 -32.199159 308.396762 -31.199389 306.998319 -31.199389 L 71.899503 -31.199389" transform="matrix(.34078 0 0 .33992 -16.17 113.25)"/><path fill="#fff" fill-opacity=".992" d="M16.070312 89.105469L18.007812 89.105469 18.007812 91.066406 16.410156 91.980469 12.472656 91.980469 10.878906 91.066406 10.878906 83.078125 12.472656 82.164062 16.410156 82.164062 18.007812 83.078125 18.007812 85.042969 16.070312 85.042969 16.070312 83.789062 12.8125 83.789062 12.8125 90.289062 16.070312 90.289062zM27.78125 91.066406L26.1875 91.980469 21.839844 91.980469 20.246094 91.066406 20.246094 83.078125 21.839844 82.164062 26.1875 82.164062 27.78125 83.078125zM22.179688 83.824219L22.179688 90.324219 25.847656 90.324219 25.847656 83.824219zM32.09375 85.652344L32.09375 91.914062 30.15625 91.914062 30.15625 82.230469 31.992188 82.230469 36.164062 88.496094 36.199219 88.496094 36.199219 82.230469 38.132812 82.230469 38.132812 91.914062 36.300781 91.914062zM44.210938 83.890625L44.210938 91.914062 42.277344 91.914062 42.277344 83.890625 39.664062 83.890625 39.664062 82.230469 46.859375 82.230469 46.859375 83.890625zM52.1875 82.230469L55.648438 91.914062 53.75 91.914062 53.003906 89.816406 49.371094 89.816406 48.625 91.914062 46.722656 91.914062 50.183594 82.230469zM51.167969 84.667969L49.945312 88.15625 52.390625 88.15625zM57.042969 82.230469L58.976562 82.230469 58.976562 91.914062 57.042969 91.914062zM63.285156 85.652344L63.285156 91.914062 61.351562 91.914062 61.351562 82.230469 63.183594 82.230469 67.359375 88.496094 67.394531 88.496094 67.394531 82.230469 69.328125 82.230469 69.328125 91.914062 67.496094 91.914062zM73.640625 87.785156L73.640625 90.289062 77.507812 90.289062 77.507812 91.949219 71.707031 91.949219 71.707031 82.265625 77.507812 82.265625 77.507812 83.925781 73.640625 83.925781 73.640625 86.125 76.695312 86.125 76.695312 87.785156zM86.675781 91.914062L84.535156 91.914062 82.464844 88.257812 81.242188 88.257812 81.242188 91.914062 79.308594 91.914062 79.308594 82.230469 84.570312 82.230469 86.164062 83.144531 86.164062 87.308594 84.570312 88.222656zM81.242188 83.890625L81.242188 86.597656 84.230469 86.597656 84.230469 83.890625zM81.242188 83.890625"/><path fill="#a51d2d" d="M 105.222656 67.753906 L 105.222656 105.246094 L 194.847656 105.246094 L 194.847656 67.753906 L 191.574219 67.753906 L 191.574219 68.84375 L 108.527344 68.84375 L 108.527344 67.753906 Z M 106.140625 68.605469 L 107.539062 68.605469 L 107.539062 69.964844 L 106.140625 69.964844 Z M 192.5625 68.605469 L 193.960938 68.605469 L 193.960938 69.964844 L 192.5625 69.964844 Z M 109.617188 70.746094 L 189.734375 70.746094 C 189.90625 70.746094 190.042969 70.882812 190.042969 71.050781 C 190.042969 71.222656 189.90625 71.359375 189.734375 71.359375 L 109.617188 71.359375 C 109.3125 71.359375 109.105469 71.59375 109.105469 71.867188 L 109.105469 100.761719 C 109.105469 100.929688 108.96875 101.066406 108.800781 101.066406 C 108.628906 101.066406 108.492188 100.929688 108.492188 100.761719 L 108.492188 71.867188 C 108.460938 71.253906 109.003906 70.746094 109.617188 70.746094 Z M 121.066406 72.75 C 121.238281 72.75 121.375 72.886719 121.375 73.058594 L 121.375 100.589844 C 121.375 100.761719 121.238281 100.898438 121.066406 100.898438 C 120.898438 100.898438 120.761719 100.761719 120.761719 100.589844 L 120.761719 73.058594 C 120.726562 72.886719 120.863281 72.75 121.066406 72.75 Z M 130.917969 72.75 C 131.085938 72.75 131.222656 72.886719 131.222656 73.058594 L 131.222656 100.589844 C 131.222656 100.761719 131.085938 100.898438 130.917969 100.898438 C 130.746094 100.898438 130.609375 100.761719 130.609375 100.589844 L 130.609375 73.058594 C 130.574219 72.886719 130.746094 72.75 130.917969 72.75 Z M 140.765625 72.75 C 140.933594 72.75 141.070312 72.886719 141.070312 73.058594 L 141.070312 100.589844 C 141.070312 100.761719 140.933594 100.898438 140.765625 100.898438 C 140.59375 100.898438 140.457031 100.761719 140.457031 100.589844 L 140.457031 73.058594 C 140.457031 72.886719 140.59375 72.75 140.765625 72.75 Z M 150.613281 72.75 C 150.785156 72.75 150.921875 72.886719 150.921875 73.058594 L 150.921875 100.589844 C 150.921875 100.761719 150.785156 100.898438 150.613281 100.898438 C 150.441406 100.898438 150.308594 100.761719 150.308594 100.589844 L 150.308594 73.058594 C 150.308594 72.886719 150.441406 72.75 150.613281 72.75 Z M 160.496094 72.75 C 160.667969 72.75 160.804688 72.886719 160.804688 73.058594 L 160.804688 100.589844 C 160.804688 100.761719 160.667969 100.898438 160.496094 100.898438 C 160.324219 100.898438 160.191406 100.761719 160.191406 100.589844 L 160.191406 73.058594 C 160.15625 72.921875 160.292969 72.75 160.496094 72.75 Z M 170.34375 72.75 C 170.515625 72.75 170.652344 72.886719 170.652344 73.058594 L 170.652344 100.589844 C 170.652344 100.761719 170.515625 100.898438 170.34375 100.898438 C 170.175781 100.898438 170.039062 100.761719 170.039062 100.589844 L 170.039062 73.058594 C 170.003906 72.886719 170.175781 72.75 170.34375 72.75 Z M 180.195312 72.75 C 180.363281 72.75 180.5 72.886719 180.5 73.058594 L 180.5 100.589844 C 180.5 100.761719 180.363281 100.898438 180.195312 100.898438 C 180.023438 100.898438 179.886719 100.761719 179.886719 100.589844 L 179.886719 73.058594 C 179.886719 72.886719 180.023438 72.75 180.195312 72.75 Z M 106.140625 102.835938 L 107.539062 102.835938 L 107.539062 104.195312 L 106.140625 104.195312 Z M 192.5625 102.835938 L 193.960938 102.835938 L 193.960938 104.195312 L 192.5625 104.195312 Z M 192.5625 102.835938"/><path fill="#fff" fill-opacity=".992" d="M110.285156 77.289062L116.523438 77.289062 116.523438 77.769531 110.285156 77.769531zM111.605469 74L111.605469 74.355469 111.246094 74.355469 111.246094 74 110.464844 74 110.464844 73.757812 111.304688 72.683594 111.605469 72.683594 111.605469 73.699219 111.785156 73.699219 111.785156 74zM110.824219 73.757812L111.246094 73.757812 111.246094 73.21875zM113.285156 74.238281L112.984375 74.417969 112.324219 74.417969 112.023438 74.238281 112.023438 72.859375 112.324219 72.683594 112.984375 72.683594 113.285156 72.859375zM112.445312 72.980469L112.445312 74.117188 112.984375 74.117188 112.984375 72.980469zM113.703125 73.28125L113.703125 72.980469 114.125 72.742188 114.425781 72.742188 114.425781 74.117188 114.785156 74.117188 114.785156 74.417969 113.703125 74.417969 113.703125 74.117188 114.0625 74.117188 114.0625 73.101562zM116.285156 74.238281L115.984375 74.417969 115.324219 74.417969 115.023438 74.238281 115.023438 72.859375 115.324219 72.683594 115.984375 72.683594 116.285156 72.859375zM115.445312 72.980469L115.445312 74.117188 115.984375 74.117188 115.984375 72.980469zM111.605469 76.210938L111.605469 76.570312 111.246094 76.570312 111.246094 76.210938 110.464844 76.210938 110.464844 75.972656 111.304688 74.894531 111.605469 74.894531 111.605469 75.914062 111.785156 75.914062 111.785156 76.210938zM110.824219 75.972656L111.246094 75.972656 111.246094 75.433594zM112.445312 76.273438L113.222656 76.273438 113.222656 76.570312 112.085938 76.570312 112.085938 75.792969 112.382812 75.613281 112.925781 75.613281 112.925781 75.195312 112.445312 75.195312 112.445312 75.433594 112.085938 75.433594 112.085938 75.074219 112.382812 74.894531 112.984375 74.894531 113.285156 75.074219 113.285156 75.792969 112.984375 75.972656 112.445312 75.972656zM114.246094 76.03125L114.246094 75.734375 114.84375 75.734375 114.84375 76.453125 114.542969 76.632812 113.882812 76.632812 113.585938 76.453125 113.585938 75.074219 113.882812 74.894531 114.542969 74.894531 114.84375 75.074219 114.84375 75.433594 114.484375 75.433594 114.484375 75.195312 113.945312 75.195312 113.945312 76.332031 114.484375 76.332031 114.484375 76.03125zM115.203125 75.496094L115.203125 75.195312 115.625 74.957031 115.925781 74.957031 115.925781 76.332031 116.285156 76.332031 116.285156 76.632812 115.203125 76.632812 115.203125 76.332031 115.5625 76.332031 115.5625 75.316406zM183.382812 100.324219L189.621094 100.324219 189.621094 100.804688 183.382812 100.804688zM183.980469 96.078125L183.980469 96.554688 184.160156 96.4375 184.519531 96.4375 184.820312 96.617188 184.820312 97.332031 184.519531 97.511719 183.921875 97.511719 183.621094 97.332031 183.621094 95.957031 183.921875 95.777344 184.519531 95.777344 184.820312 95.957031 184.820312 96.316406 184.460938 96.316406 184.460938 96.078125zM183.980469 96.734375L183.980469 97.214844 184.460938 97.214844 184.460938 96.734375zM186.199219 97.09375L186.199219 97.453125 185.839844 97.453125 185.839844 97.09375 185.0625 97.09375 185.0625 96.855469 185.902344 95.777344 186.199219 95.777344 186.199219 96.796875 186.378906 96.796875 186.378906 97.09375zM185.480469 96.796875L185.902344 96.796875 185.902344 96.257812zM187.101562 97.15625L187.582031 97.15625 187.582031 96.734375 187.101562 96.734375zM187.101562 96.4375L187.582031 96.4375 187.582031 96.015625 187.101562 96.015625zM187.640625 97.453125L186.980469 97.453125 186.742188 97.273438 186.742188 96.675781 186.921875 96.554688 186.742188 96.4375 186.742188 95.898438 187.039062 95.71875 187.640625 95.71875 187.941406 95.898438 187.941406 96.4375 187.761719 96.554688 187.941406 96.675781 187.941406 97.273438zM188.660156 97.15625L189.140625 97.15625 189.140625 96.734375 188.660156 96.734375zM188.660156 96.4375L189.140625 96.4375 189.140625 96.015625 188.660156 96.015625zM189.199219 97.453125L188.539062 97.453125 188.300781 97.273438 188.300781 96.675781 188.480469 96.554688 188.300781 96.4375 188.300781 95.898438 188.601562 95.71875 189.199219 95.71875 189.5 95.898438 189.5 96.4375 189.320312 96.554688 189.5 96.675781 189.5 97.273438zM184.460938 99.367188L184.460938 98.890625 184.28125 99.007812 183.921875 99.007812 183.621094 98.828125 183.621094 98.113281 183.921875 97.933594 184.519531 97.933594 184.820312 98.113281 184.820312 99.488281 184.519531 99.667969 183.921875 99.667969 183.621094 99.488281 183.621094 99.128906 183.980469 99.128906 183.980469 99.367188zM184.460938 98.710938L184.460938 98.230469 183.980469 98.230469 183.980469 98.710938zM186.441406 99.488281L186.140625 99.667969 185.480469 99.667969 185.242188 99.488281 185.242188 98.113281 185.539062 97.933594 186.199219 97.933594 186.5 98.113281 186.5 99.488281zM185.539062 98.230469L185.539062 99.367188 186.082031 99.367188 186.082031 98.230469zM187.160156 99.367188L187.640625 99.367188 187.640625 98.949219 187.160156 98.949219zM187.160156 98.652344L187.640625 98.652344 187.640625 98.230469 187.160156 98.230469zM187.699219 99.667969L187.039062 99.667969 186.800781 99.488281 186.800781 98.890625 186.980469 98.769531 186.800781 98.652344 186.800781 98.113281 187.101562 97.933594 187.699219 97.933594 188 98.113281 188 98.652344 187.820312 98.769531 188 98.890625 188 99.488281zM189.378906 99.25L189.378906 99.609375 189.019531 99.609375 189.019531 99.25 188.242188 99.25 188.242188 99.007812 189.082031 97.933594 189.378906 97.933594 189.378906 98.949219 189.5625 98.949219 189.5625 99.25zM188.660156 99.007812L189.082031 99.007812 189.082031 98.472656zM188.660156 99.007812"/><path fill="none" stroke="#f9f9f9" stroke-linecap="round" stroke-linejoin="round" stroke-miterlimit="15.118" stroke-width="1.89" d="M 529.395685 -87.9958 C 529.395685 -82.801596 529.395685 -3.302691 529.395685 -3.302691 C 529.395685 -1.900716 528.295271 -0.900946 526.896829 -0.900946 L 291.798012 -0.900946" transform="matrix(.34078 0 0 .33992 10.791 102.97)"/><path fill="#fff" d="M112.652344 92.382812L112.652344 81.777344 118.238281 81.777344 120.027344 82.804688 120.027344 87.511719 118.238281 88.542969 114.765625 88.542969 114.765625 92.382812zM114.765625 83.617188L114.765625 86.757812 117.859375 86.757812 117.859375 83.617188zM122.144531 92.382812L122.144531 81.777344 124.257812 81.777344 124.257812 90.597656 127.890625 90.597656 127.890625 92.4375zM135.757812 81.777344L137.871094 81.777344 137.871094 91.460938 136.082031 92.492188 131.308594 92.492188 129.519531 91.460938 129.519531 81.777344 131.632812 81.777344 131.632812 90.488281 135.648438 90.488281 135.648438 81.777344zM149.425781 92.382812L149.425781 85.402344 149.371094 85.402344 146.984375 92.382812 144.976562 92.382812 142.535156 85.296875 142.480469 85.296875 142.480469 92.382812 140.421875 92.382812 140.421875 81.777344 143.242188 81.777344 145.898438 89.570312 145.953125 89.570312 148.609375 81.777344 151.429688 81.777344 151.429688 92.382812zM161.574219 86.105469L160.273438 86.863281 160.273438 86.917969 161.574219 87.675781 161.574219 91.355469 159.785156 92.382812 154.035156 92.382812 154.035156 81.777344 159.785156 81.777344 161.574219 82.804688zM156.148438 87.785156L156.148438 90.542969 159.402344 90.542969 159.402344 87.785156zM156.148438 83.617188L156.148438 86 159.402344 86 159.402344 83.617188zM164.175781 81.777344L166.292969 81.777344 166.292969 92.382812 164.175781 92.382812zM171.011719 85.511719L171.011719 92.382812 168.894531 92.382812 168.894531 81.777344 170.902344 81.777344 175.511719 88.648438 175.566406 88.648438 175.566406 81.777344 177.679688 81.777344 177.679688 92.382812 175.675781 92.382812zM183.972656 88.648438L183.972656 86.808594 187.824219 86.808594 187.824219 91.410156 186.035156 92.4375 181.75 92.4375 179.960938 91.410156 179.960938 82.699219 181.75 81.671875 186.035156 81.671875 187.824219 82.699219 187.824219 84.863281 185.707031 84.863281 185.707031 83.511719 182.128906 83.511719 182.128906 90.652344 185.707031 90.652344 185.707031 88.703125zM183.972656 88.648438"/><path fill="#a51d2d" d="M 207.128906 67.753906 L 207.128906 105.246094 L 296.753906 105.246094 L 296.753906 67.753906 L 293.484375 67.753906 L 293.484375 68.839844 L 210.398438 68.839844 L 210.398438 67.753906 Z M 208.050781 68.601562 L 209.445312 68.601562 L 209.445312 69.960938 L 208.050781 69.960938 Z M 294.472656 68.601562 L 295.867188 68.601562 L 295.867188 69.960938 L 294.472656 69.960938 Z M 211.523438 70.742188 L 291.640625 70.742188 C 291.8125 70.742188 291.949219 70.878906 291.949219 71.050781 C 291.949219 71.21875 291.8125 71.355469 291.640625 71.355469 L 211.523438 71.355469 C 211.21875 71.355469 211.015625 71.59375 211.015625 71.867188 L 211.015625 100.757812 C 211.015625 100.929688 210.878906 101.066406 210.707031 101.066406 C 210.535156 101.066406 210.398438 100.929688 210.398438 100.757812 L 210.398438 71.867188 C 210.367188 71.253906 210.878906 70.742188 211.523438 70.742188 Z M 222.941406 72.75 C 223.113281 72.75 223.246094 72.886719 223.246094 73.054688 L 223.246094 100.589844 C 223.246094 100.757812 223.113281 100.894531 222.941406 100.894531 C 222.769531 100.894531 222.632812 100.757812 222.632812 100.589844 L 222.632812 73.054688 C 222.632812 72.917969 222.769531 72.75 222.941406 72.75 Z M 232.824219 72.75 C 232.992188 72.75 233.128906 72.886719 233.128906 73.054688 L 233.128906 100.589844 C 233.128906 100.757812 232.992188 100.894531 232.824219 100.894531 C 232.652344 100.894531 232.515625 100.757812 232.515625 100.589844 L 232.515625 73.054688 C 232.484375 72.917969 232.621094 72.75 232.824219 72.75 Z M 242.671875 72.75 C 242.84375 72.75 242.980469 72.886719 242.980469 73.054688 L 242.980469 100.589844 C 242.980469 100.757812 242.84375 100.894531 242.671875 100.894531 C 242.5 100.894531 242.367188 100.757812 242.367188 100.589844 L 242.367188 73.054688 C 242.332031 72.917969 242.5 72.75 242.671875 72.75 Z M 252.519531 72.75 C 252.691406 72.75 252.828125 72.886719 252.828125 73.054688 L 252.828125 100.589844 C 252.828125 100.757812 252.691406 100.894531 252.519531 100.894531 C 252.351562 100.894531 252.214844 100.757812 252.214844 100.589844 L 252.214844 73.054688 C 252.214844 72.917969 252.351562 72.75 252.519531 72.75 Z M 262.371094 72.75 C 262.539062 72.75 262.675781 72.886719 262.675781 73.054688 L 262.675781 100.589844 C 262.675781 100.757812 262.539062 100.894531 262.371094 100.894531 C 262.199219 100.894531 262.0625 100.757812 262.0625 100.589844 L 262.0625 73.054688 C 262.0625 72.917969 262.199219 72.75 262.371094 72.75 Z M 272.253906 72.75 C 272.421875 72.75 272.558594 72.886719 272.558594 73.054688 L 272.558594 100.589844 C 272.558594 100.757812 272.421875 100.894531 272.253906 100.894531 C 272.082031 100.894531 271.945312 100.757812 271.945312 100.589844 L 271.945312 73.054688 C 271.910156 72.917969 272.046875 72.75 272.253906 72.75 Z M 282.101562 72.75 C 282.269531 72.75 282.40625 72.886719 282.40625 73.054688 L 282.40625 100.589844 C 282.40625 100.757812 282.269531 100.894531 282.101562 100.894531 C 281.929688 100.894531 281.792969 100.757812 281.792969 100.589844 L 281.792969 73.054688 C 281.761719 72.917969 281.929688 72.75 282.101562 72.75 Z M 208.050781 102.832031 L 209.445312 102.832031 L 209.445312 104.191406 L 208.050781 104.191406 Z M 294.472656 102.832031 L 295.867188 102.832031 L 295.867188 104.191406 L 294.472656 104.191406 Z M 294.472656 102.832031"/><path fill="#fff" fill-opacity=".992" d="M212.160156 77.300781L218.398438 77.300781 218.398438 77.777344 212.160156 77.777344zM213.480469 74.007812L213.480469 74.367188 213.121094 74.367188 213.121094 74.007812 212.339844 74.007812 212.339844 73.769531 213.179688 72.691406 213.480469 72.691406 213.480469 73.710938 213.660156 73.710938 213.660156 74.007812zM212.699219 73.769531L213.121094 73.769531 213.121094 73.230469zM215.21875 74.246094L214.921875 74.425781 214.261719 74.425781 213.960938 74.246094 213.960938 72.871094 214.261719 72.691406 214.921875 72.691406 215.21875 72.871094zM214.320312 72.992188L214.320312 74.128906 214.859375 74.128906 214.859375 72.992188zM215.640625 73.289062L215.640625 72.992188 216.058594 72.75 216.359375 72.75 216.359375 74.128906 216.71875 74.128906 216.71875 74.425781 215.640625 74.425781 215.640625 74.128906 216 74.128906 216 73.109375zM218.21875 74.246094L217.917969 74.425781 217.261719 74.425781 216.960938 74.246094 216.960938 72.871094 217.261719 72.691406 217.917969 72.691406 218.21875 72.871094zM217.320312 72.992188L217.320312 74.128906 217.859375 74.128906 217.859375 72.992188zM213.480469 76.222656L213.480469 76.582031 213.121094 76.582031 213.121094 76.222656 212.339844 76.222656 212.339844 75.984375 213.179688 74.90625 213.480469 74.90625 213.480469 75.921875 213.660156 75.921875 213.660156 76.222656zM212.699219 75.921875L213.121094 75.921875 213.121094 75.386719zM214.320312 76.28125L215.101562 76.28125 215.101562 76.582031 213.960938 76.582031 213.960938 75.804688 214.261719 75.625 214.800781 75.625 214.800781 75.207031 214.320312 75.207031 214.320312 75.445312 213.960938 75.445312 213.960938 75.085938 214.261719 74.90625 214.859375 74.90625 215.160156 75.085938 215.160156 75.804688 214.859375 75.984375 214.320312 75.984375zM216.121094 75.984375L216.121094 75.683594 216.71875 75.683594 216.71875 76.402344 216.421875 76.582031 215.761719 76.582031 215.460938 76.402344 215.460938 75.085938 215.761719 74.90625 216.421875 74.90625 216.71875 75.085938 216.71875 75.445312 216.359375 75.445312 216.359375 75.207031 215.820312 75.207031 215.820312 76.34375 216.359375 76.34375 216.359375 76.042969zM217.140625 75.503906L217.140625 75.207031 217.558594 74.964844 217.859375 74.964844 217.859375 76.34375 218.21875 76.34375 218.21875 76.640625 217.140625 76.640625 217.140625 76.28125 217.5 76.28125 217.5 75.265625zM285.257812 100.335938L291.496094 100.335938 291.496094 100.816406 285.257812 100.816406zM285.917969 96.027344L285.917969 96.507812 286.097656 96.386719 286.457031 96.386719 286.757812 96.566406 286.757812 97.285156 286.457031 97.464844 285.855469 97.464844 285.558594 97.285156 285.558594 95.90625 285.855469 95.726562 286.457031 95.726562 286.757812 95.90625 286.757812 96.265625 286.398438 96.265625 286.398438 96.027344zM285.917969 96.746094L285.917969 97.222656 286.398438 97.222656 286.398438 96.746094zM288.136719 97.105469L288.136719 97.464844 287.777344 97.464844 287.777344 97.105469 286.996094 97.105469 286.996094 96.867188 287.835938 95.789062 288.136719 95.789062 288.136719 96.804688 288.316406 96.804688 288.316406 97.105469zM287.355469 96.804688L287.777344 96.804688 287.777344 96.265625zM288.976562 97.164062L289.457031 97.164062 289.457031 96.746094 288.976562 96.746094zM288.976562 96.445312L289.457031 96.445312 289.457031 96.027344 288.976562 96.027344zM289.515625 97.464844L288.855469 97.464844 288.617188 97.285156 288.617188 96.6875 288.796875 96.566406 288.617188 96.445312 288.617188 95.90625 288.917969 95.726562 289.515625 95.726562 289.816406 95.90625 289.816406 96.445312 289.636719 96.566406 289.816406 96.6875 289.816406 97.285156zM290.535156 97.164062L291.015625 97.164062 291.015625 96.746094 290.535156 96.746094zM290.535156 96.445312L291.015625 96.445312 291.015625 96.027344 290.535156 96.027344zM291.078125 97.464844L290.417969 97.464844 290.175781 97.285156 290.175781 96.6875 290.355469 96.566406 290.175781 96.445312 290.175781 95.90625 290.476562 95.726562 291.078125 95.726562 291.375 95.90625 291.375 96.445312 291.195312 96.566406 291.375 96.6875 291.375 97.285156zM286.398438 99.378906L286.398438 98.898438 286.21875 99.019531 285.855469 99.019531 285.558594 98.839844 285.558594 98.121094 285.855469 97.941406 286.457031 97.941406 286.757812 98.121094 286.757812 99.5 286.457031 99.679688 285.855469 99.679688 285.558594 99.5 285.558594 99.140625 285.917969 99.140625 285.917969 99.378906zM286.398438 98.71875L286.398438 98.242188 285.917969 98.242188 285.917969 98.71875zM288.316406 99.5L288.015625 99.679688 287.355469 99.679688 287.058594 99.5 287.058594 98.121094 287.355469 97.941406 288.015625 97.941406 288.316406 98.121094zM287.476562 98.242188L287.476562 99.378906 288.015625 99.378906 288.015625 98.242188zM289.097656 99.378906L289.578125 99.378906 289.578125 98.960938 289.097656 98.960938zM289.097656 98.660156L289.578125 98.660156 289.578125 98.242188 289.097656 98.242188zM289.636719 99.679688L288.976562 99.679688 288.738281 99.5 288.738281 98.898438 288.917969 98.78125 288.738281 98.660156 288.738281 98.121094 289.035156 97.941406 289.636719 97.941406 289.9375 98.121094 289.9375 98.660156 289.757812 98.78125 289.9375 98.898438 289.9375 99.5zM291.316406 99.257812L291.316406 99.617188 290.957031 99.617188 290.957031 99.257812 290.175781 99.257812 290.175781 99.019531 291.015625 97.941406 291.316406 97.941406 291.316406 98.960938 291.496094 98.960938 291.496094 99.257812zM290.535156 99.019531L290.957031 99.019531 290.957031 98.480469zM290.535156 99.019531"/><path fill="none" stroke="#f9f9f9" stroke-linecap="round" stroke-linejoin="round" stroke-miterlimit="15.118" stroke-width="1.89" d="M 919.804599 75.298706 C 919.804599 80.504402 919.804599 160.003307 919.804599 160.003307 C 919.804599 161.405282 918.704186 162.405052 917.29428 162.405052 L 682.195464 162.405052" transform="matrix(.34078 0 0 .33992 -20.342 47.459)"/><path fill="#fff" d="M223.039062 91.285156L221.300781 92.257812 214.902344 92.257812 214.902344 81.871094 221.300781 81.871094 223.039062 82.84375zM217.015625 83.65625L217.015625 90.472656 220.976562 90.472656 220.976562 83.65625zM230.359375 81.871094L234.101562 92.257812 232.039062 92.257812 231.226562 90.039062 227.320312 90.039062 226.507812 92.257812 224.449219 92.257812 228.191406 81.871094zM229.273438 84.523438L227.972656 88.253906 230.628906 88.253906zM237.03125 92.257812L237.03125 87.820312 233.667969 81.871094 235.945312 81.871094 238.0625 85.765625 238.113281 85.765625 240.230469 81.871094 242.507812 81.871094 239.144531 87.820312 239.144531 92.257812zM243.917969 87.011719L243.917969 82.789062 245.652344 81.816406 249.394531 81.816406 251.132812 82.789062 251.132812 84.738281 249.070312 84.738281 249.070312 83.546875 246.035156 83.546875 246.035156 86.035156 249.449219 86.035156 251.1875 87.011719 251.1875 91.285156 249.449219 92.257812 245.546875 92.257812 243.808594 91.285156 243.808594 89.335938 245.871094 89.335938 245.871094 90.527344 249.070312 90.527344 249.070312 87.984375 245.652344 87.984375zM255.621094 82.234375L288.644531 78.902344 289.664062 89.8125 256.644531 94.640625zM255.621094 82.234375"/><path fill-opacity=".992" d="M 284.757812 83.285156 L 283.019531 86.175781 L 283.019531 86.210938 L 285.097656 85.972656 L 284.792969 83.285156 Z M 284.757812 83.285156"/><path fill-opacity=".992" d="M 290.28125 77 L 253.542969 81.316406 L 255.316406 96.476562 L 292.050781 92.160156 Z M 258.859375 92.429688 L 258.417969 88.554688 L 259.675781 87.605469 L 262.199219 87.296875 L 261.960938 85.121094 L 259.710938 85.394531 L 259.847656 86.449219 L 258.210938 86.652344 L 258.007812 84.988281 L 259.269531 84.035156 L 262.0625 83.695312 L 263.527344 84.304688 L 263.9375 87.707031 L 262.675781 88.65625 L 260.15625 88.964844 L 260.359375 90.800781 L 264.242188 90.355469 L 264.414062 91.75 Z M 270.957031 91.070312 L 267.753906 91.445312 L 266.289062 90.832031 L 265.503906 84.070312 L 266.765625 83.117188 L 269.96875 82.742188 L 271.433594 83.355469 L 272.21875 90.121094 Z M 274.332031 90.59375 L 273.886719 86.71875 L 275.148438 85.769531 L 277.671875 85.460938 L 277.433594 83.285156 L 275.183594 83.558594 L 275.320312 84.613281 L 273.683594 84.816406 L 273.480469 83.152344 L 274.738281 82.199219 L 277.535156 81.859375 L 279 82.472656 L 279.410156 85.871094 L 278.148438 86.820312 L 275.625 87.128906 L 275.832031 88.964844 L 279.714844 88.523438 L 279.886719 89.914062 Z M 287.109375 88.929688 L 285.472656 89.132812 L 285.269531 87.296875 L 281.351562 87.773438 L 281.214844 86.585938 L 284.65625 80.839844 L 286.121094 80.667969 L 286.734375 85.769531 L 287.757812 85.632812 L 287.929688 86.957031 L 286.90625 87.09375 Z M 287.109375 88.929688"/><path fill-opacity=".992" d="M 267.234375 84.464844 L 269.875 84.15625 L 270.527344 89.695312 L 267.886719 90.003906 Z M 267.234375 84.464844"/></svg>