<?xml version="1.0" encoding="UTF-8" standalone="no"?>
<!-- Created with Inkscape (http://www.inkscape.org/) -->

<svg
   width="1000"
   height="260"
   viewBox="0 0 264.58333 68.791667"
   version="1.1"
   id="svg1"
   inkscape:version="1.3-dev (a02f26c, 2023-01-31)"
   sodipodi:docname="containerplumbing23-threecolor-horizontal.svg"
   xml:space="preserve"
   xmlns:inkscape="http://www.inkscape.org/namespaces/inkscape"
   xmlns:sodipodi="http://sodipodi.sourceforge.net/DTD/sodipodi-0.dtd"
   xmlns:xlink="http://www.w3.org/1999/xlink"
   xmlns="http://www.w3.org/2000/svg"
   xmlns:svg="http://www.w3.org/2000/svg"><sodipodi:namedview
     id="namedview1"
     pagecolor="#ffffff"
     bordercolor="#000000"
     borderopacity="0.25"
     inkscape:showpageshadow="2"
     inkscape:pageopacity="0.0"
     inkscape:pagecheckerboard="0"
     inkscape:deskcolor="#d1d1d1"
     inkscape:document-units="mm"
     inkscape:zoom="1"
     inkscape:cx="653"
     inkscape:cy="201"
     inkscape:window-width="3840"
     inkscape:window-height="1131"
     inkscape:window-x="0"
     inkscape:window-y="0"
     inkscape:window-maximized="1"
     inkscape:current-layer="g227"
     showgrid="false" /><defs
     id="defs1"><linearGradient
       id="linearGradient5"
       inkscape:collect="always"><stop
         style="stop-color:#4f5972;stop-opacity:1;"
         offset="0"
         id="stop5" /><stop
         style="stop-color:#2e2e36;stop-opacity:1;"
         offset="0.62153369"
         id="stop7" /><stop
         style="stop-color:#233b43;stop-opacity:1;"
         offset="1"
         id="stop6" /></linearGradient><linearGradient
       inkscape:collect="always"
       xlink:href="#linearGradient5"
       id="linearGradient6"
       x1="104.3268"
       y1="314.65613"
       x2="104.3268"
       y2="424.21741"
       gradientUnits="userSpaceOnUse" /></defs><g
     inkscape:label="Layer 1"
     inkscape:groupmode="layer"
     id="layer1"
     transform="translate(-89.952168,-107.84138)"><g
       id="g227"
       transform="translate(-19.642002,-77.698777)"><g
         id="g5"
         transform="translate(-16.873797,-159.46221)"><g
           id="g3589"
           transform="rotate(-90,274.63007,215.39126)"><g
             id="g3587"
             transform="translate(20.682243,55.49862)"><path
               style="color:#000000;fill:#000000;stroke-linecap:round;stroke-linejoin:round;-inkscape-stroke:none;paint-order:markers fill stroke"
               d="m 74.591797,166.5293 c -2.477499,0 -4.541476,1.17903 -5.376953,2.86914 -0.835478,1.6901 -0.75586,3.37798 -0.75586,4.90625 0,1.51121 0.01232,21.21579 0.519532,22.90794 0.253605,0.84607 0.642124,1.70897 1.376953,2.43359 0.734829,0.72462 1.860239,1.19727 2.988281,1.19727 h 4.519531 c 1.104569,0 2,-0.89543 2,-2 0,-1.10457 -0.895431,-2 -2,-2 H 73.34375 c -0.214294,0 -0.121957,0.012 -0.179688,-0.0449 -0.05773,-0.0569 -0.221543,-0.29604 -0.353515,-0.73632 -0.263945,-0.88057 -0.351563,-20.33729 -0.351563,-21.75755 0,-1.49036 0.122735,-2.68967 0.341797,-3.13282 0.219062,-0.44314 0.222017,-0.64257 1.791016,-0.64257 h 3.271484 c 1.104569,0 2,-0.89543 2,-2 0,-1.10457 -0.895431,-2 -2,-2 z"
               id="path3563"
               sodipodi:nodetypes="csssssssssssssssscc" /><g
               id="g3569"
               transform="matrix(0.74343211,0,0,0.7494169,51.848339,168.85297)"
               style="fill:#0a1313;fill-opacity:1;stroke-width:1.33973"><path
                 id="path3565"
                 style="opacity:1;fill:#000000;fill-opacity:1;stroke:#000000;stroke-width:1.33973;stroke-linejoin:round;stroke-dasharray:none;stop-color:#000000"
                 d="m 38.760886,2.8603181 h -3.028791 c -0.409014,0 -0.738158,-0.280865 -0.738158,-0.629352 v -5.4684804 c 0,-0.3484397 0.32942,-0.6293059 0.738158,-0.6293059 h 3.028791 c 0.409013,0 0.738102,0.2808662 0.738102,0.6293059 v 5.4684804 c 0,0.34844 -0.328868,0.629352 -0.738102,0.629352 z" /><path
                 id="path3567"
                 style="opacity:1;fill:#000000;fill-opacity:1;stroke:#000000;stroke-width:1.33973;stroke-linejoin:round;stroke-dasharray:none;stop-color:#000000"
                 d="m 38.760886,43.382323 h -3.028791 c -0.409014,0 -0.738158,-0.280865 -0.738158,-0.629352 v -5.46848 c 0,-0.34844 0.32942,-0.629306 0.738158,-0.629306 h 3.028791 c 0.409013,0 0.738102,0.280866 0.738102,0.629306 v 5.46848 c 0,0.34844 -0.328868,0.629352 -0.738102,0.629352 z" /></g><path
               style="opacity:1;fill:#000000;fill-opacity:1;stroke:#f9f9f9;stroke-width:0.499999;stroke-linecap:round;stroke-linejoin:round;stroke-dasharray:none;paint-order:markers fill stroke;stop-color:#000000"
               d="m 79.778282,166.19094 h -1.12585 c -0.283033,0.0233 -0.524572,0.10236 -0.548769,0.47391 v 0.92145 0.64892 m 0,0.97781 v 0.40035"
               id="path3571"
               sodipodi:nodetypes="ccccccc" /><path
               style="opacity:1;fill:#000000;fill-opacity:1;stroke:#f9f9f9;stroke-width:0.499999;stroke-linecap:round;stroke-linejoin:round;stroke-dasharray:none;paint-order:markers fill stroke;stop-color:#000000"
               d="m 79.778282,196.59156 h -1.12585 c -0.283033,0.0233 -0.524572,0.10236 -0.548769,0.47391 v 0.92145 0.64892 m 0,0.97781 v 0.40035"
               id="path3573"
               sodipodi:nodetypes="ccccccc" /><path
               style="opacity:1;fill:none;fill-opacity:1;stroke:#f9f9f9;stroke-width:0.499999;stroke-linecap:round;stroke-linejoin:round;stroke-dasharray:none;paint-order:markers fill stroke;stop-color:#000000"
               d="m 76.802258,167.42108 -2.666712,0.0297 c -3.298806,0 -4.918658,2.85021 -4.918658,7.00999 m 0,1.13768 v 0.40035 m 7.719441,21.72028 h -2.984981"
               id="path3575"
               sodipodi:nodetypes="ccccccc" /><rect
               style="fill:#000000;stroke-width:0.352777;paint-order:markers fill stroke;stop-color:#000000"
               id="rect3577"
               width="7.2964182"
               height="7.6413035"
               x="66.863693"
               y="180.31532"
               rx="1.674963"
               ry="4.0219865" /><g
               id="g3740"
               inkscape:transform-center-x="-4.568278"
               inkscape:transform-center-y="-2.4378301"
               transform="rotate(27.865371,70.511901,184.13597)"><rect
                 style="fill:#a51d2d;fill-opacity:1;stroke-width:0.352777;paint-order:markers fill stroke;stop-color:#000000"
                 id="rect3579"
                 width="15.485544"
                 height="3.4880667"
                 x="58.30072"
                 y="182.11862"
                 rx="0.87227911"
                 ry="1.7440333"
                 inkscape:transform-center-y="-0.019963354"
                 transform="rotate(0.22097646)"
                 inkscape:transform-center-x="-5.1780086" /><path
                 style="opacity:1;fill:none;fill-opacity:1;stroke:#f9f9f9;stroke-width:0.499999;stroke-linecap:round;stroke-linejoin:round;stroke-dasharray:none;paint-order:markers fill stroke;stop-color:#000000"
                 d="m 58.560194,182.91293 8.098169,0.0501 0.590753,0.0164 m 1.035898,1.7e-4 0.217377,0.006"
                 id="path3583"
                 sodipodi:nodetypes="ccccc"
                 inkscape:transform-center-x="-6.9806089"
                 inkscape:transform-center-y="-1.186703" /></g><path
               sodipodi:type="star"
               style="fill:#000000;fill-opacity:1;stroke-width:0.352777;paint-order:markers fill stroke;stop-color:#000000"
               id="path3581"
               inkscape:flatsided="false"
               sodipodi:sides="6"
               sodipodi:cx="-76.831573"
               sodipodi:cy="313.7804"
               sodipodi:r1="5.7421393"
               sodipodi:r2="4.2176752"
               sodipodi:arg1="0.26179939"
               sodipodi:arg2="0.78539816"
               inkscape:rounded="0.53"
               inkscape:randomized="0"
               d="m -71.285093,315.26657 c -0.407232,1.51981 -1.451556,0.38359 -2.564134,1.49617 -1.112578,1.11258 0.02364,2.1569 -1.496171,2.56414 -1.51981,0.40723 -1.05798,-1.06529 -2.57779,-1.47252 -1.51981,-0.40723 -1.856113,1.09892 -2.968691,-0.0137 -1.112578,-1.11258 0.393576,-1.44888 -0.01366,-2.96869 -0.407232,-1.51981 -1.879751,-1.05798 -1.472519,-2.57779 0.407232,-1.51981 1.451556,-0.38359 2.564134,-1.49617 1.112578,-1.11258 -0.02364,-2.1569 1.496172,-2.56414 1.519809,-0.40723 1.057979,1.06529 2.577789,1.47252 1.51981,0.40724 1.856113,-1.09892 2.968691,0.0137 1.112578,1.11258 -0.393576,1.44888 0.01366,2.96869 0.407232,1.51981 1.879751,1.05798 1.472519,2.57779 z"
               transform="matrix(0.26458333,0,0,0.26458333,90.840255,101.11491)"
               inkscape:transform-center-y="3.9540653e-06" /></g></g><g
           id="g3428"
           transform="matrix(0,1,1,0,-19.711475,260.77794)"><g
             id="g574"
             transform="translate(20.682243,55.49862)"><path
               style="color:#000000;fill:#1a1a1a;fill-opacity:1;stroke-linecap:round;stroke-linejoin:round;-inkscape-stroke:none;paint-order:markers fill stroke"
               d="m 74.591797,166.5293 c -2.477499,0 -4.541476,1.17903 -5.376953,2.86914 -0.835478,1.6901 -0.75586,3.37798 -0.75586,4.90625 0,1.51121 0.01232,21.21579 0.519532,22.90794 0.253605,0.84607 0.642124,1.70897 1.376953,2.43359 0.734829,0.72462 1.860239,1.19727 2.988281,1.19727 h 4.519531 c 1.104569,0 2,-0.89543 2,-2 0,-1.10457 -0.895431,-2 -2,-2 H 73.34375 c -0.214294,0 -0.121957,0.012 -0.179688,-0.0449 -0.05773,-0.0569 -0.221543,-0.29604 -0.353515,-0.73632 -0.263945,-0.88057 -0.351563,-20.33729 -0.351563,-21.75755 0,-1.49036 0.122735,-2.68967 0.341797,-3.13282 0.219062,-0.44314 0.222017,-0.64257 1.791016,-0.64257 h 3.271484 c 1.104569,0 2,-0.89543 2,-2 0,-1.10457 -0.895431,-2 -2,-2 z"
               id="path560"
               sodipodi:nodetypes="csssssssssssssssscc" /><g
               id="g566"
               transform="matrix(0.74343211,0,0,0.7494169,51.848339,168.85297)"
               style="fill:#0a1313;fill-opacity:1;stroke-width:1.33973"><path
                 id="path562"
                 style="opacity:1;fill:#000000;fill-opacity:1;stroke:#000000;stroke-width:0.898818;stroke-linejoin:round;stroke-dasharray:none;stop-color:#000000"
                 d="m 38.760886,2.8603181 h -3.028791 c -0.409014,0 -0.738158,-0.280865 -0.738158,-0.629352 v -5.4684804 c 0,-0.3484397 0.32942,-0.6293059 0.738158,-0.6293059 h 3.028791 c 0.409013,0 0.738102,0.2808662 0.738102,0.6293059 v 5.4684804 c 0,0.34844 -0.328868,0.629352 -0.738102,0.629352 z" /><path
                 id="path564"
                 style="opacity:1;fill:#000000;fill-opacity:1;stroke:#000000;stroke-width:0.898818;stroke-linejoin:round;stroke-dasharray:none;stop-color:#000000"
                 d="m 38.760886,43.382323 h -3.028791 c -0.409014,0 -0.738158,-0.280865 -0.738158,-0.629352 v -5.46848 c 0,-0.34844 0.32942,-0.629306 0.738158,-0.629306 h 3.028791 c 0.409013,0 0.738102,0.280866 0.738102,0.629306 v 5.46848 c 0,0.34844 -0.328868,0.629352 -0.738102,0.629352 z" /></g><path
               style="opacity:1;fill:none;fill-opacity:1;stroke:#f9f9f9;stroke-width:0.499999;stroke-linecap:round;stroke-linejoin:round;stroke-dasharray:none;paint-order:markers fill stroke;stop-color:#000000"
               d="m 79.778282,166.19094 h -1.12585 c -0.283033,0.0233 -0.524572,0.10236 -0.548769,0.47391 v 0.92145 0.64892 m 0,0.97781 v 0.40035"
               id="path568"
               sodipodi:nodetypes="ccccccc" /><path
               style="opacity:1;fill:none;fill-opacity:1;stroke:#f9f9f9;stroke-width:0.499999;stroke-linecap:round;stroke-linejoin:round;stroke-dasharray:none;paint-order:markers fill stroke;stop-color:#000000"
               d="m 79.778282,196.59156 h -1.12585 c -0.283033,0.0233 -0.524572,0.10236 -0.548769,0.47391 v 0.92145 0.64892 m 0,0.97781 v 0.40035"
               id="path570"
               sodipodi:nodetypes="ccccccc" /><path
               style="opacity:1;fill:none;fill-opacity:1;stroke:#f9f9f9;stroke-width:0.499999;stroke-linecap:round;stroke-linejoin:round;stroke-dasharray:none;paint-order:markers fill stroke;stop-color:#000000"
               d="m 76.802258,167.42108 -2.666712,0.0297 c -3.298806,0 -4.918658,2.85021 -4.918658,7.00999 m 0,1.13768 v 0.40035 m 7.719441,21.73423 h -2.984981"
               id="path572"
               sodipodi:nodetypes="ccccccc" /><rect
               style="fill:#1a1a1a;fill-opacity:1;stroke-width:0.352777;paint-order:markers fill stroke;stop-color:#000000"
               id="rect830"
               width="7.2964182"
               height="7.6413035"
               x="66.863693"
               y="180.31532"
               rx="1.674963"
               ry="4.0219865" /><g
               id="g3744"
               inkscape:transform-center-x="0.87391085"
               inkscape:transform-center-y="5.1037703"
               transform="rotate(-16.079756,70.511901,184.13597)"><rect
                 style="fill:#a51d2d;fill-opacity:1;stroke-width:0.352777;paint-order:markers fill stroke;stop-color:#000000"
                 id="rect1923"
                 width="15.485544"
                 height="3.4880667"
                 x="-148.02222"
                 y="141.87212"
                 rx="0.87227911"
                 ry="1.7440333"
                 inkscape:transform-center-y="4.6620378"
                 transform="rotate(-64.20371)"
                 inkscape:transform-center-x="2.253338" /><path
                 style="opacity:1;fill:none;fill-opacity:1;stroke:#f9f9f9;stroke-width:0.499999;stroke-linecap:round;stroke-linejoin:round;stroke-dasharray:none;paint-order:markers fill stroke;stop-color:#000000"
                 d="m 64.249172,194.38865 3.541205,-7.28305 0.269897,-0.52575 m 0.447405,-0.9343 0.100349,-0.19296"
                 id="path1996"
                 sodipodi:nodetypes="ccccc"
                 inkscape:transform-center-x="-4.0769186"
                 inkscape:transform-center-y="-5.521963" /></g><path
               sodipodi:type="star"
               style="fill:#000000;fill-opacity:1;stroke-width:0.352777;paint-order:markers fill stroke;stop-color:#000000"
               id="path1994"
               inkscape:flatsided="false"
               sodipodi:sides="6"
               sodipodi:cx="-76.831573"
               sodipodi:cy="313.7804"
               sodipodi:r1="5.7421393"
               sodipodi:r2="4.2176752"
               sodipodi:arg1="0.26179939"
               sodipodi:arg2="0.78539816"
               inkscape:rounded="0.53"
               inkscape:randomized="0"
               d="m -71.285093,315.26657 c -0.407232,1.51981 -1.451556,0.38359 -2.564134,1.49617 -1.112578,1.11258 0.02364,2.1569 -1.496171,2.56414 -1.51981,0.40723 -1.05798,-1.06529 -2.57779,-1.47252 -1.51981,-0.40723 -1.856113,1.09892 -2.968691,-0.0137 -1.112578,-1.11258 0.393576,-1.44888 -0.01366,-2.96869 -0.407232,-1.51981 -1.879751,-1.05798 -1.472519,-2.57779 0.407232,-1.51981 1.451556,-0.38359 2.564134,-1.49617 1.112578,-1.11258 -0.02364,-2.1569 1.496172,-2.56414 1.519809,-0.40723 1.057979,1.06529 2.577789,1.47252 1.51981,0.40724 1.856113,-1.09892 2.968691,0.0137 1.112578,1.11258 -0.393576,1.44888 0.01366,2.96869 0.407232,1.51981 1.879751,1.05798 1.472519,2.57779 z"
               transform="matrix(0.26458333,0,0,0.26458333,90.840255,101.11491)"
               inkscape:transform-center-y="3.9540653e-06" /></g></g><g
           id="g2"
           transform="translate(12.243607,193.54684)"><path
             id="path142"
             style="fill:#a51d2d;fill-opacity:1;stroke:none;stroke-width:1.64716;stroke-linejoin:round;stroke-dashoffset:59.5276;paint-order:stroke fill markers;stop-color:#000000"
             d="m 132.60514,167.25926 v 0.84233 28.33987 h 2.54558 64.49943 2.54558 v -28.33987 -0.84233 h -2.54558 v 0.84233 h -64.49943 v -0.84233 z m 0.7121,0.65887 h 1.08986 v 1.04749 h -1.08986 z m 67.09927,0 h 1.08882 v 1.04749 h -1.08882 z m -64.40176,1.65675 h 62.20861 a 0.25,0.25 0 0 1 0.25012,0.25011 0.25,0.25 0 0 1 -0.25012,0.25012 h -62.20861 c -0.22494,0 -0.39687,0.17348 -0.39687,0.39842 v 22.49424 a 0.25,0.25 0 0 1 -0.2496,0.2496 0.25,0.25 0 0 1 -0.25012,-0.2496 v -22.49424 c 0,-0.49329 0.4033,-0.89865 0.89659,-0.89865 z m 8.87698,1.57458 a 0.25,0.25 0 0 1 0.2496,0.2496 v 21.4359 a 0.25,0.25 0 0 1 -0.2496,0.2496 0.25,0.25 0 0 1 -0.25012,-0.2496 v -21.4359 a 0.25,0.25 0 0 1 0.25012,-0.2496 z m 7.65225,0 a 0.25,0.25 0 0 1 0.25011,0.2496 v 21.4359 a 0.25,0.25 0 0 1 -0.25011,0.2496 0.25,0.25 0 0 1 -0.25011,-0.2496 v -21.4359 a 0.25,0.25 0 0 1 0.25011,-0.2496 z m 7.65225,0 a 0.25,0.25 0 0 1 0.25011,0.2496 v 21.4359 a 0.25,0.25 0 0 1 -0.25011,0.2496 0.25,0.25 0 0 1 -0.25012,-0.2496 v -21.4359 a 0.25,0.25 0 0 1 0.25012,-0.2496 z m 7.65224,0 a 0.25,0.25 0 0 1 0.25012,0.2496 v 21.4359 a 0.25,0.25 0 0 1 -0.25012,0.2496 0.25,0.25 0 0 1 -0.25011,-0.2496 v -21.4359 a 0.25,0.25 0 0 1 0.25011,-0.2496 z m 7.65225,0 a 0.25,0.25 0 0 1 0.25011,0.2496 v 21.4359 a 0.25,0.25 0 0 1 -0.25011,0.2496 0.25,0.25 0 0 1 -0.2496,-0.2496 v -21.4359 a 0.25,0.25 0 0 1 0.2496,-0.2496 z m 7.65276,0 a 0.25,0.25 0 0 1 0.2496,0.2496 v 21.4359 a 0.25,0.25 0 0 1 -0.2496,0.2496 0.25,0.25 0 0 1 -0.25011,-0.2496 v -21.4359 a 0.25,0.25 0 0 1 0.25011,-0.2496 z m 7.65225,0 a 0.25,0.25 0 0 1 0.24959,0.2496 v 21.4359 a 0.25,0.25 0 0 1 -0.24959,0.2496 0.25,0.25 0 0 1 -0.25012,-0.2496 v -21.4359 a 0.25,0.25 0 0 1 0.25012,-0.2496 z m -57.48849,23.40219 h 1.08986 v 1.04748 h -1.08986 z m 67.09927,0 h 1.08882 v 1.04748 h -1.08882 z" /><g
             id="g152"
             style="fill:#ffffff;fill-opacity:0.99382"
             transform="matrix(-1.7605221,0,0,1.7605221,-111.72986,126.42352)"><path
               id="path143"
               style="opacity:1;fill:#ffffff;fill-opacity:0.991986;stroke-width:0.032281;stroke-linejoin:round;stroke-dashoffset:59.5276;paint-order:stroke fill markers;stop-color:#000000"
               transform="scale(-1,1)"
               d="m 141.00124,27.404345 h 2.75615 v 0.199358 h -2.75615 z" /><g
               aria-label="4010 42G1 "
               transform="scale(-1,1)"
               id="g151"
               style="font-weight:900;font-size:1.05693px;line-height:0.9;font-family:'Source Sans Pro';-inkscape-font-specification:'Source Sans Pro Heavy';text-align:center;letter-spacing:0px;word-spacing:0px;text-anchor:middle;opacity:1;mix-blend-mode:hard-light;fill:#ffffff;fill-opacity:0.991986;stroke-width:0.0719832"><path
                 d="m 141.58384,25.965101 v 0.163824 h -0.14585 v -0.163824 h -0.3509 v -0.105693 l 0.36675,-0.470334 h 0.13 v 0.456594 h 0.0909 v 0.119433 z m -0.33293,-0.119433 h 0.18708 v -0.238866 h -0.002 l -0.18496,0.236752 z"
                 style="font-weight:bold;font-family:Quantico;-inkscape-font-specification:'Quantico Bold';text-align:start;text-anchor:start;fill:#ffffff;fill-opacity:0.991986"
                 id="path144" /><path
                 d="m 142.34589,26.063396 -0.1226,0.07081 h -0.28855 l -0.1226,-0.07081 v -0.608792 l 0.1226,-0.07081 h 0.28855 l 0.1226,0.07081 z m -0.38578,-0.552775 v 0.496757 h 0.23781 v -0.496757 z"
                 style="font-weight:bold;font-family:Quantico;-inkscape-font-specification:'Quantico Bold';text-align:start;text-anchor:start;fill:#ffffff;fill-opacity:0.991986"
                 id="path145" /><path
                 d="m 142.52557,25.636396 v -0.138458 l 0.19024,-0.108864 h 0.12684 v 0.61302 h 0.16911 v 0.126831 h -0.48619 v -0.126831 h 0.16911 v -0.462936 z"
                 style="font-weight:bold;font-family:Quantico;-inkscape-font-specification:'Quantico Bold';text-align:start;text-anchor:start;fill:#ffffff;fill-opacity:0.991986"
                 id="path146" /><path
                 d="m 143.67234,26.063396 -0.12261,0.07081 h -0.28854 l -0.1226,-0.07081 v -0.608792 l 0.1226,-0.07081 h 0.28854 l 0.12261,0.07081 z m -0.38578,-0.552775 v 0.496757 h 0.23781 v -0.496757 z"
                 style="font-weight:bold;font-family:Quantico;-inkscape-font-specification:'Quantico Bold';text-align:start;text-anchor:start;fill:#ffffff;fill-opacity:0.991986"
                 id="path147" /><path
                 d="m 141.58384,26.933681 v 0.163824 h -0.14585 v -0.163824 h -0.3509 v -0.105693 l 0.36675,-0.470334 h 0.13 v 0.456594 h 0.0909 v 0.119433 z m -0.33293,-0.119433 h 0.18708 v -0.238866 h -0.002 l -0.18496,0.236752 z"
                 style="font-weight:bold;font-family:Quantico;-inkscape-font-specification:'Quantico Bold';text-align:start;text-anchor:start;fill:#ffffff;fill-opacity:0.991986"
                 id="path148" /><path
                 d="m 141.96011,26.970674 h 0.34879 v 0.126831 h -0.49676 v -0.34773 l 0.1226,-0.07081 h 0.22619 V 26.48449 h -0.20082 v 0.09512 h -0.14797 v -0.151141 l 0.1226,-0.07081 h 0.25155 l 0.12261,0.07081 v 0.306509 l -0.12261,0.07081 h -0.22618 z"
                 style="font-weight:bold;font-family:Quantico;-inkscape-font-specification:'Quantico Bold';text-align:start;text-anchor:start;fill:#ffffff;fill-opacity:0.991986"
                 id="path149" /><path
                 d="m 142.75281,26.838558 v -0.126832 h 0.26951 v 0.32025 l -0.1226,0.07081 h -0.29911 l -0.1226,-0.07081 v -0.608792 l 0.1226,-0.07081 h 0.29911 l 0.1226,0.07081 v 0.151141 h -0.14797 v -0.09512 h -0.24837 v 0.496757 h 0.24837 v -0.1374 z"
                 style="font-weight:bold;font-family:Quantico;-inkscape-font-specification:'Quantico Bold';text-align:start;text-anchor:start;fill:#ffffff;fill-opacity:0.991986"
                 id="path150" /><path
                 d="m 143.19143,26.604976 v -0.138458 l 0.19025,-0.108864 h 0.12683 v 0.61302 h 0.16911 v 0.126831 h -0.48619 v -0.126831 h 0.16911 v -0.462936 z"
                 style="font-weight:bold;font-family:Quantico;-inkscape-font-specification:'Quantico Bold';text-align:start;text-anchor:start;fill:#ffffff;fill-opacity:0.991986"
                 id="path151" /></g></g><g
             id="g161"
             style="fill:#ffffff;fill-opacity:0.991986"
             transform="matrix(-1.7605221,0,0,1.7605221,-54.975217,144.3706)"><path
               id="path152"
               style="fill:#ffffff;fill-opacity:0.991986;stroke-width:0.032281;stroke-linejoin:round;stroke-dashoffset:59.5276;paint-order:stroke fill markers;stop-color:#000000"
               transform="scale(-1,1)"
               d="m 141.00124,27.404345 h 2.75615 v 0.199358 h -2.75615 z" /><g
               aria-label="6488 9084"
               transform="scale(-1,1)"
               id="g160"
               style="font-weight:900;font-size:1.05693px;line-height:0.9;font-family:'Source Sans Pro';-inkscape-font-specification:'Source Sans Pro Heavy';text-align:center;letter-spacing:0px;word-spacing:0px;text-anchor:middle;opacity:1;mix-blend-mode:hard-light;fill:#ffffff;fill-opacity:0.991986;stroke-width:0.0719832"><path
                 d="m 141.2879,25.510621 v 0.212443 l 0.0751,-0.04333 h 0.15642 l 0.12261,0.07081 v 0.312852 l -0.12261,0.07081 h -0.25683 l -0.12261,-0.07081 v -0.608792 l 0.12261,-0.07081 h 0.25683 l 0.12261,0.07081 v 0.151141 h -0.14797 v -0.09512 z m 0,0.295941 v 0.200816 h 0.20611 v -0.200816 z"
                 style="font-weight:bold;font-family:Quantico;-inkscape-font-specification:'Quantico Bold';text-align:start;text-anchor:start;fill:#ffffff;fill-opacity:0.991986"
                 id="path153" /><path
                 d="m 142.26556,25.965101 v 0.163824 h -0.14585 v -0.163824 h -0.3509 v -0.105693 l 0.36675,-0.470334 h 0.13 v 0.456594 h 0.0909 v 0.119433 z m -0.33293,-0.119433 h 0.18708 v -0.238866 h -0.002 l -0.18496,0.236752 z"
                 style="font-weight:bold;font-family:Quantico;-inkscape-font-specification:'Quantico Bold';text-align:start;text-anchor:start;fill:#ffffff;fill-opacity:0.991986"
                 id="path154" /><path
                 d="m 142.64183,26.007378 h 0.21667 v -0.197646 h -0.21667 z m 0,-0.324477 h 0.21667 v -0.17228 h -0.21667 z m 0.24204,0.451309 h -0.28432 l -0.10569,-0.07081 v -0.26318 l 0.0919,-0.05285 v -0.0021 l -0.0919,-0.05285 v -0.237809 l 0.1226,-0.07081 h 0.26741 l 0.1226,0.07081 v 0.237809 l -0.0919,0.05285 v 0.0021 l 0.0919,0.05285 v 0.263176 z"
                 style="font-weight:bold;font-family:Quantico;-inkscape-font-specification:'Quantico Bold';text-align:start;text-anchor:start;fill:#ffffff;fill-opacity:0.991986"
                 id="path155" /><path
                 d="m 143.33412,26.007378 h 0.21667 v -0.197646 h -0.21667 z m 0,-0.324477 h 0.21667 v -0.17228 h -0.21667 z m 0.24203,0.451309 h -0.28431 l -0.10569,-0.07081 v -0.26318 l 0.0919,-0.05285 v -0.0021 l -0.0919,-0.05285 v -0.237809 l 0.1226,-0.07081 h 0.2674 l 0.12261,0.07081 v 0.237809 l -0.092,0.05285 v 0.0021 l 0.092,0.05285 v 0.263176 z"
                 style="font-weight:bold;font-family:Quantico;-inkscape-font-specification:'Quantico Bold';text-align:start;text-anchor:start;fill:#ffffff;fill-opacity:0.991986"
                 id="path156" /><path
                 d="m 141.49401,26.975958 v -0.212442 l -0.0751,0.04333 h -0.15642 l -0.12261,-0.07081 v -0.312851 l 0.12261,-0.07081 h 0.25683 l 0.12261,0.07081 v 0.608792 l -0.12261,0.07081 h -0.25683 l -0.12261,-0.07081 v -0.151141 h 0.14797 v 0.09512 z m 0,-0.29594 v -0.200817 h -0.20611 v 0.200817 z"
                 style="font-weight:bold;font-family:Quantico;-inkscape-font-specification:'Quantico Bold';text-align:start;text-anchor:start;fill:#ffffff;fill-opacity:0.991986"
                 id="path157" /><path
                 d="m 142.3554,27.031976 -0.1226,0.07081 h -0.28854 l -0.12261,-0.07081 v -0.608792 l 0.12261,-0.07081 h 0.28854 l 0.1226,0.07081 z m -0.38578,-0.552775 v 0.496757 h 0.23781 v -0.496757 z"
                 style="font-weight:bold;font-family:Quantico;-inkscape-font-specification:'Quantico Bold';text-align:start;text-anchor:start;fill:#ffffff;fill-opacity:0.991986"
                 id="path158" /><path
                 d="m 142.68305,26.975958 h 0.21667 v -0.197645 h -0.21667 z m 0,-0.324477 h 0.21667 v -0.17228 h -0.21667 z m 0.24204,0.451309 h -0.28432 l -0.10569,-0.07081 V 26.7688 l 0.0919,-0.05285 v -0.0021 l -0.0919,-0.05285 v -0.237809 l 0.1226,-0.07081 h 0.26741 l 0.1226,0.07081 V 26.661 l -0.0919,0.05285 v 0.0021 l 0.0919,0.05285 v 0.263176 z"
                 style="font-weight:bold;font-family:Quantico;-inkscape-font-specification:'Quantico Bold';text-align:start;text-anchor:start;fill:#ffffff;fill-opacity:0.991986"
                 id="path159" /><path
                 d="m 143.67128,26.933681 v 0.163824 h -0.14586 v -0.163824 h -0.3509 v -0.105693 l 0.36675,-0.470334 h 0.13001 v 0.456594 h 0.0909 v 0.119433 z m -0.33294,-0.119433 h 0.18708 v -0.238866 h -0.002 l -0.18497,0.236752 z"
                 style="font-weight:bold;font-family:Quantico;-inkscape-font-specification:'Quantico Bold';text-align:start;text-anchor:start;fill:#ffffff;fill-opacity:0.991986"
                 id="path160" /></g></g><path
             id="path161"
             style="fill:none;fill-opacity:0.991986;stroke:#f9f9f9;stroke-width:0.5;stroke-linecap:round;stroke-linejoin:round;stroke-dasharray:none;paint-order:markers fill stroke;stop-color:#000000"
             d="m 199.34676,171.37775 c 0,1.3824 0,22.42282 0,22.42282 0,0.35912 -0.28912,0.64823 -0.64824,0.64823 h -62.20885"
             sodipodi:nodetypes="cssc" /><g
             id="g170"
             transform="matrix(0.99606126,0,0,0.99606126,139.03457,4.1700107)"
             style="stroke-width:1.00395"><path
               d="m 3.4676046,180.39867 h 1.5147269 v 1.54718 l -1.2550521,0.72491 H 0.66537429 l -1.25505212,-0.72491 v -6.232 l 1.25505212,-0.7249 H 3.7272794 l 1.2550521,0.7249 v 1.54718 H 3.4676046 v -0.97374 H 0.92503311 v 5.08513 H 3.4676046 Z"
               style="font-weight:bold;font-size:6.79812px;line-height:2;font-family:Quantico;-inkscape-font-specification:'Quantico Bold';text-align:center;letter-spacing:0px;word-spacing:0px;text-anchor:middle;opacity:1;mix-blend-mode:hard-light;fill:#ffffff;fill-opacity:0.991986;stroke-width:0.271558"
               id="path162" /><path
               d="m 12.61003,181.94585 -1.255068,0.72491 H 7.9684796 l -1.2550522,-0.72491 v -6.232 l 1.2550522,-0.7249 h 3.3864824 l 1.255068,0.7249 z m -4.3818757,-5.65856 v 5.08513 h 2.8671487 v -5.08513 z"
               style="font-weight:bold;font-size:6.79812px;line-height:2;font-family:Quantico;-inkscape-font-specification:'Quantico Bold';text-align:center;letter-spacing:0px;word-spacing:0px;text-anchor:middle;opacity:1;mix-blend-mode:hard-light;fill:#ffffff;fill-opacity:0.991986;stroke-width:0.271558"
               id="path163" /><path
               d="m 15.96403,177.71545 v 4.90121 h -1.514727 v -7.57361 h 1.417357 l 3.267467,4.90121 h 0.02164 v -4.90121 h 1.514711 v 7.57361 h -1.417341 l -3.267468,-4.90121 z"
               style="font-weight:bold;font-size:6.79812px;line-height:2;font-family:Quantico;-inkscape-font-specification:'Quantico Bold';text-align:center;letter-spacing:0px;word-spacing:0px;text-anchor:middle;opacity:1;mix-blend-mode:hard-light;fill:#ffffff;fill-opacity:0.991986;stroke-width:0.271558"
               id="path164" /><path
               d="m 25.42021,176.34138 v 6.27528 h -1.514727 v -6.27528 h -2.044867 v -1.29833 h 5.604477 v 1.29833 z"
               style="font-weight:bold;font-size:6.79812px;line-height:2;font-family:Quantico;-inkscape-font-specification:'Quantico Bold';text-align:center;letter-spacing:0px;word-spacing:0px;text-anchor:middle;opacity:1;mix-blend-mode:hard-light;fill:#ffffff;fill-opacity:0.991986;stroke-width:0.271558"
               id="path165" /><path
               d="m 31.61973,175.04305 2.70486,7.57361 h -1.493082 l -0.57343,-1.63374 h -2.834697 l -0.57343,1.63374 h -1.493082 l 2.70486,-7.57361 z m -0.789815,1.90422 -0.95212,2.73732 h 1.915046 l -0.941297,-2.73732 z"
               style="font-weight:bold;font-size:6.79812px;line-height:2;font-family:Quantico;-inkscape-font-specification:'Quantico Bold';text-align:center;letter-spacing:0px;word-spacing:0px;text-anchor:middle;opacity:1;mix-blend-mode:hard-light;fill:#ffffff;fill-opacity:0.991986;stroke-width:0.271558"
               id="path166" /><path
               d="m 35.406531,182.61666 v -7.57361 h 1.514727 v 7.57361 z"
               style="font-weight:bold;font-size:6.79812px;line-height:2;font-family:Quantico;-inkscape-font-specification:'Quantico Bold';text-align:center;letter-spacing:0px;word-spacing:0px;text-anchor:middle;opacity:1;mix-blend-mode:hard-light;fill:#ffffff;fill-opacity:0.991986;stroke-width:0.271558"
               id="path167" /><path
               d="m 40.275273,177.71545 v 4.90121 h -1.514727 v -7.57361 h 1.417357 l 3.267468,4.90121 h 0.02164 v -4.90121 h 1.51471 v 7.57361 h -1.41734 l -3.267468,-4.90121 z"
               style="font-weight:bold;font-size:6.79812px;line-height:2;font-family:Quantico;-inkscape-font-specification:'Quantico Bold';text-align:center;letter-spacing:0px;word-spacing:0px;text-anchor:middle;opacity:1;mix-blend-mode:hard-light;fill:#ffffff;fill-opacity:0.991986;stroke-width:0.271558"
               id="path168" /><path
               d="m 48.335742,179.37083 v 1.9475 h 3.018631 v 1.29833 h -4.533342 v -7.57361 h 4.533342 v 1.29833 h -3.018631 v 1.73111 h 2.36946 v 1.29834 z"
               style="font-weight:bold;font-size:6.79812px;line-height:2;font-family:Quantico;-inkscape-font-specification:'Quantico Bold';text-align:center;letter-spacing:0px;word-spacing:0px;text-anchor:middle;opacity:1;mix-blend-mode:hard-light;fill:#ffffff;fill-opacity:0.991986;stroke-width:0.271558"
               id="path169" /><path
               d="m 58.506012,182.61666 h -1.666193 l -1.622904,-2.85633 h -0.941297 v 2.85633 h -1.514727 v -7.57361 h 4.100573 l 1.255052,0.7249 v 3.26747 l -1.255052,0.72491 z m -4.230394,-6.27528 v 2.12061 h 2.326171 v -2.12061 z"
               style="font-weight:bold;font-size:6.79812px;line-height:2;font-family:Quantico;-inkscape-font-specification:'Quantico Bold';text-align:center;letter-spacing:0px;word-spacing:0px;text-anchor:middle;opacity:1;mix-blend-mode:hard-light;fill:#ffffff;fill-opacity:0.991986;stroke-width:0.271558"
               id="path170" /></g></g><g
           id="g3"
           transform="translate(91.359197,163.3063)"><path
             id="path171"
             style="fill:#a51d2d;fill-opacity:1;stroke:none;stroke-width:1.64716;stroke-linejoin:round;stroke-dashoffset:59.5276;paint-order:stroke fill markers;stop-color:#000000"
             d="m 132.60514,197.4998 v 0.84233 28.33987 h 2.54558 64.49943 2.54558 v -28.33987 -0.84233 h -2.54558 v 0.84233 h -64.49943 v -0.84233 z m 0.7121,0.65887 h 1.08986 v 1.04749 h -1.08986 z m 67.09927,0 h 1.08882 v 1.04749 h -1.08882 z m -64.40176,1.65675 h 62.20861 a 0.25,0.25 0 0 1 0.25012,0.25011 0.25,0.25 0 0 1 -0.25012,0.25012 h -62.20861 c -0.22494,0 -0.39687,0.17348 -0.39687,0.39842 v 22.49424 a 0.25,0.25 0 0 1 -0.2496,0.2496 0.25,0.25 0 0 1 -0.25012,-0.2496 v -22.49424 c 0,-0.49329 0.4033,-0.89865 0.89659,-0.89865 z m 8.87698,1.57458 a 0.25,0.25 0 0 1 0.2496,0.2496 v 21.4359 a 0.25,0.25 0 0 1 -0.2496,0.2496 0.25,0.25 0 0 1 -0.25012,-0.2496 v -21.4359 a 0.25,0.25 0 0 1 0.25012,-0.2496 z m 7.65225,0 a 0.25,0.25 0 0 1 0.25011,0.2496 v 21.4359 a 0.25,0.25 0 0 1 -0.25011,0.2496 0.25,0.25 0 0 1 -0.25011,-0.2496 v -21.4359 a 0.25,0.25 0 0 1 0.25011,-0.2496 z m 7.65225,0 a 0.25,0.25 0 0 1 0.25011,0.2496 v 21.4359 a 0.25,0.25 0 0 1 -0.25011,0.2496 0.25,0.25 0 0 1 -0.25012,-0.2496 v -21.4359 a 0.25,0.25 0 0 1 0.25012,-0.2496 z m 7.65224,0 a 0.25,0.25 0 0 1 0.25012,0.2496 v 21.4359 a 0.25,0.25 0 0 1 -0.25012,0.2496 0.25,0.25 0 0 1 -0.25011,-0.2496 v -21.4359 a 0.25,0.25 0 0 1 0.25011,-0.2496 z m 7.65225,0 a 0.25,0.25 0 0 1 0.25011,0.2496 v 21.4359 a 0.25,0.25 0 0 1 -0.25011,0.2496 0.25,0.25 0 0 1 -0.2496,-0.2496 v -21.4359 a 0.25,0.25 0 0 1 0.2496,-0.2496 z m 7.65276,0 a 0.25,0.25 0 0 1 0.2496,0.2496 v 21.4359 a 0.25,0.25 0 0 1 -0.2496,0.2496 0.25,0.25 0 0 1 -0.25011,-0.2496 v -21.4359 a 0.25,0.25 0 0 1 0.25011,-0.2496 z m 7.65225,0 a 0.25,0.25 0 0 1 0.24959,0.2496 v 21.4359 a 0.25,0.25 0 0 1 -0.24959,0.2496 0.25,0.25 0 0 1 -0.25012,-0.2496 v -21.4359 a 0.25,0.25 0 0 1 0.25012,-0.2496 z m -57.48849,23.40219 h 1.08986 v 1.04748 h -1.08986 z m 67.09927,0 h 1.08882 v 1.04748 h -1.08882 z" /><g
             id="g181"
             style="fill:#ffffff;fill-opacity:0.99382"
             transform="matrix(-1.7605221,0,0,1.7605221,-111.72986,156.66406)"><path
               id="path172"
               style="opacity:1;fill:#ffffff;fill-opacity:0.991986;stroke-width:0.032281;stroke-linejoin:round;stroke-dashoffset:59.5276;paint-order:stroke fill markers;stop-color:#000000"
               transform="scale(-1,1)"
               d="m 141.00124,27.404345 h 2.75615 v 0.199358 h -2.75615 z" /><g
               aria-label="4010 42G1 "
               transform="scale(-1,1)"
               id="g180"
               style="font-weight:900;font-size:1.05693px;line-height:0.9;font-family:'Source Sans Pro';-inkscape-font-specification:'Source Sans Pro Heavy';text-align:center;letter-spacing:0px;word-spacing:0px;text-anchor:middle;opacity:1;mix-blend-mode:hard-light;fill:#ffffff;fill-opacity:0.991986;stroke-width:0.0719832"><path
                 d="m 141.58384,25.965101 v 0.163824 h -0.14585 v -0.163824 h -0.3509 v -0.105693 l 0.36675,-0.470334 h 0.13 v 0.456594 h 0.0909 v 0.119433 z m -0.33293,-0.119433 h 0.18708 v -0.238866 h -0.002 l -0.18496,0.236752 z"
                 style="font-weight:bold;font-family:Quantico;-inkscape-font-specification:'Quantico Bold';text-align:start;text-anchor:start;fill:#ffffff;fill-opacity:0.991986"
                 id="path173" /><path
                 d="m 142.34589,26.063396 -0.1226,0.07081 h -0.28855 l -0.1226,-0.07081 v -0.608792 l 0.1226,-0.07081 h 0.28855 l 0.1226,0.07081 z m -0.38578,-0.552775 v 0.496757 h 0.23781 v -0.496757 z"
                 style="font-weight:bold;font-family:Quantico;-inkscape-font-specification:'Quantico Bold';text-align:start;text-anchor:start;fill:#ffffff;fill-opacity:0.991986"
                 id="path174" /><path
                 d="m 142.52557,25.636396 v -0.138458 l 0.19024,-0.108864 h 0.12684 v 0.61302 h 0.16911 v 0.126831 h -0.48619 v -0.126831 h 0.16911 v -0.462936 z"
                 style="font-weight:bold;font-family:Quantico;-inkscape-font-specification:'Quantico Bold';text-align:start;text-anchor:start;fill:#ffffff;fill-opacity:0.991986"
                 id="path175" /><path
                 d="m 143.67234,26.063396 -0.12261,0.07081 h -0.28854 l -0.1226,-0.07081 v -0.608792 l 0.1226,-0.07081 h 0.28854 l 0.12261,0.07081 z m -0.38578,-0.552775 v 0.496757 h 0.23781 v -0.496757 z"
                 style="font-weight:bold;font-family:Quantico;-inkscape-font-specification:'Quantico Bold';text-align:start;text-anchor:start;fill:#ffffff;fill-opacity:0.991986"
                 id="path176" /><path
                 d="m 141.58384,26.933681 v 0.163824 h -0.14585 v -0.163824 h -0.3509 v -0.105693 l 0.36675,-0.470334 h 0.13 v 0.456594 h 0.0909 v 0.119433 z m -0.33293,-0.119433 h 0.18708 v -0.238866 h -0.002 l -0.18496,0.236752 z"
                 style="font-weight:bold;font-family:Quantico;-inkscape-font-specification:'Quantico Bold';text-align:start;text-anchor:start;fill:#ffffff;fill-opacity:0.991986"
                 id="path177" /><path
                 d="m 141.96011,26.970674 h 0.34879 v 0.126831 h -0.49676 v -0.34773 l 0.1226,-0.07081 h 0.22619 V 26.48449 h -0.20082 v 0.09512 h -0.14797 v -0.151141 l 0.1226,-0.07081 h 0.25155 l 0.12261,0.07081 v 0.306509 l -0.12261,0.07081 h -0.22618 z"
                 style="font-weight:bold;font-family:Quantico;-inkscape-font-specification:'Quantico Bold';text-align:start;text-anchor:start;fill:#ffffff;fill-opacity:0.991986"
                 id="path178" /><path
                 d="m 142.75281,26.838558 v -0.126832 h 0.26951 v 0.32025 l -0.1226,0.07081 h -0.29911 l -0.1226,-0.07081 v -0.608792 l 0.1226,-0.07081 h 0.29911 l 0.1226,0.07081 v 0.151141 h -0.14797 v -0.09512 h -0.24837 v 0.496757 h 0.24837 v -0.1374 z"
                 style="font-weight:bold;font-family:Quantico;-inkscape-font-specification:'Quantico Bold';text-align:start;text-anchor:start;fill:#ffffff;fill-opacity:0.991986"
                 id="path179" /><path
                 d="m 143.19143,26.604976 v -0.138458 l 0.19025,-0.108864 h 0.12683 v 0.61302 h 0.16911 v 0.126831 h -0.48619 v -0.126831 h 0.16911 v -0.462936 z"
                 style="font-weight:bold;font-family:Quantico;-inkscape-font-specification:'Quantico Bold';text-align:start;text-anchor:start;fill:#ffffff;fill-opacity:0.991986"
                 id="path180" /></g></g><g
             id="g190"
             style="fill:#ffffff;fill-opacity:0.991986"
             transform="matrix(-1.7605221,0,0,1.7605221,-54.975217,174.61114)"><path
               id="path181"
               style="fill:#ffffff;fill-opacity:0.991986;stroke-width:0.032281;stroke-linejoin:round;stroke-dashoffset:59.5276;paint-order:stroke fill markers;stop-color:#000000"
               transform="scale(-1,1)"
               d="m 141.00124,27.404345 h 2.75615 v 0.199358 h -2.75615 z" /><g
               aria-label="6488 9084"
               transform="scale(-1,1)"
               id="g189"
               style="font-weight:900;font-size:1.05693px;line-height:0.9;font-family:'Source Sans Pro';-inkscape-font-specification:'Source Sans Pro Heavy';text-align:center;letter-spacing:0px;word-spacing:0px;text-anchor:middle;opacity:1;mix-blend-mode:hard-light;fill:#ffffff;fill-opacity:0.991986;stroke-width:0.0719832"><path
                 d="m 141.2879,25.510621 v 0.212443 l 0.0751,-0.04333 h 0.15642 l 0.12261,0.07081 v 0.312852 l -0.12261,0.07081 h -0.25683 l -0.12261,-0.07081 v -0.608792 l 0.12261,-0.07081 h 0.25683 l 0.12261,0.07081 v 0.151141 h -0.14797 v -0.09512 z m 0,0.295941 v 0.200816 h 0.20611 v -0.200816 z"
                 style="font-weight:bold;font-family:Quantico;-inkscape-font-specification:'Quantico Bold';text-align:start;text-anchor:start;fill:#ffffff;fill-opacity:0.991986"
                 id="path182" /><path
                 d="m 142.26556,25.965101 v 0.163824 h -0.14585 v -0.163824 h -0.3509 v -0.105693 l 0.36675,-0.470334 h 0.13 v 0.456594 h 0.0909 v 0.119433 z m -0.33293,-0.119433 h 0.18708 v -0.238866 h -0.002 l -0.18496,0.236752 z"
                 style="font-weight:bold;font-family:Quantico;-inkscape-font-specification:'Quantico Bold';text-align:start;text-anchor:start;fill:#ffffff;fill-opacity:0.991986"
                 id="path183" /><path
                 d="m 142.64183,26.007378 h 0.21667 v -0.197646 h -0.21667 z m 0,-0.324477 h 0.21667 v -0.17228 h -0.21667 z m 0.24204,0.451309 h -0.28432 l -0.10569,-0.07081 v -0.26318 l 0.0919,-0.05285 v -0.0021 l -0.0919,-0.05285 v -0.237809 l 0.1226,-0.07081 h 0.26741 l 0.1226,0.07081 v 0.237809 l -0.0919,0.05285 v 0.0021 l 0.0919,0.05285 v 0.263176 z"
                 style="font-weight:bold;font-family:Quantico;-inkscape-font-specification:'Quantico Bold';text-align:start;text-anchor:start;fill:#ffffff;fill-opacity:0.991986"
                 id="path184" /><path
                 d="m 143.33412,26.007378 h 0.21667 v -0.197646 h -0.21667 z m 0,-0.324477 h 0.21667 v -0.17228 h -0.21667 z m 0.24203,0.451309 h -0.28431 l -0.10569,-0.07081 v -0.26318 l 0.0919,-0.05285 v -0.0021 l -0.0919,-0.05285 v -0.237809 l 0.1226,-0.07081 h 0.2674 l 0.12261,0.07081 v 0.237809 l -0.092,0.05285 v 0.0021 l 0.092,0.05285 v 0.263176 z"
                 style="font-weight:bold;font-family:Quantico;-inkscape-font-specification:'Quantico Bold';text-align:start;text-anchor:start;fill:#ffffff;fill-opacity:0.991986"
                 id="path185" /><path
                 d="m 141.49401,26.975958 v -0.212442 l -0.0751,0.04333 h -0.15642 l -0.12261,-0.07081 v -0.312851 l 0.12261,-0.07081 h 0.25683 l 0.12261,0.07081 v 0.608792 l -0.12261,0.07081 h -0.25683 l -0.12261,-0.07081 v -0.151141 h 0.14797 v 0.09512 z m 0,-0.29594 v -0.200817 h -0.20611 v 0.200817 z"
                 style="font-weight:bold;font-family:Quantico;-inkscape-font-specification:'Quantico Bold';text-align:start;text-anchor:start;fill:#ffffff;fill-opacity:0.991986"
                 id="path186" /><path
                 d="m 142.3554,27.031976 -0.1226,0.07081 h -0.28854 l -0.12261,-0.07081 v -0.608792 l 0.12261,-0.07081 h 0.28854 l 0.1226,0.07081 z m -0.38578,-0.552775 v 0.496757 h 0.23781 v -0.496757 z"
                 style="font-weight:bold;font-family:Quantico;-inkscape-font-specification:'Quantico Bold';text-align:start;text-anchor:start;fill:#ffffff;fill-opacity:0.991986"
                 id="path187" /><path
                 d="m 142.68305,26.975958 h 0.21667 v -0.197645 h -0.21667 z m 0,-0.324477 h 0.21667 v -0.17228 h -0.21667 z m 0.24204,0.451309 h -0.28432 l -0.10569,-0.07081 V 26.7688 l 0.0919,-0.05285 v -0.0021 l -0.0919,-0.05285 v -0.237809 l 0.1226,-0.07081 h 0.26741 l 0.1226,0.07081 V 26.661 l -0.0919,0.05285 v 0.0021 l 0.0919,0.05285 v 0.263176 z"
                 style="font-weight:bold;font-family:Quantico;-inkscape-font-specification:'Quantico Bold';text-align:start;text-anchor:start;fill:#ffffff;fill-opacity:0.991986"
                 id="path188" /><path
                 d="m 143.67128,26.933681 v 0.163824 h -0.14586 v -0.163824 h -0.3509 v -0.105693 l 0.36675,-0.470334 h 0.13001 v 0.456594 h 0.0909 v 0.119433 z m -0.33294,-0.119433 h 0.18708 v -0.238866 h -0.002 l -0.18497,0.236752 z"
                 style="font-weight:bold;font-family:Quantico;-inkscape-font-specification:'Quantico Bold';text-align:start;text-anchor:start;fill:#ffffff;fill-opacity:0.991986"
                 id="path189" /></g></g><path
             id="path190"
             style="fill:none;fill-opacity:0.991986;stroke:#f9f9f9;stroke-width:0.5;stroke-linecap:round;stroke-linejoin:round;stroke-dasharray:none;paint-order:markers fill stroke;stop-color:#000000"
             d="m 199.34676,201.61829 c 0,1.3824 0,22.42282 0,22.42282 0,0.35912 -0.28912,0.64823 -0.64824,0.64823 h -62.20885"
             sodipodi:nodetypes="cssc" /><g
             aria-label="PLUMBING "
             id="g218"
             style="font-weight:900;font-size:7.41456px;line-height:0;font-family:'Source Sans Pro';-inkscape-font-specification:'Source Sans Pro Heavy';text-align:center;letter-spacing:0px;word-spacing:0px;text-anchor:middle;mix-blend-mode:hard-light;fill:#ffffff;stroke-width:0.185365"
             transform="matrix(1.5915343,0,0,1.5915343,964.79986,174.31722)"><path
               d="m -519.2651,26.60891 v -5.190192 h 2.73597 l 0.86009,0.496775 v 2.313343 l -0.86009,0.496775 h -1.69793 v 1.883299 z m 1.03804,-4.300445 v 1.527399 h 1.51998 v -1.527399 z"
               style="font-weight:bold;line-height:2;font-family:Quantico;-inkscape-font-specification:'Quantico Bold'"
               id="path211" /><path
               d="m -514.63101,26.60891 v -5.190192 h 1.03803 v 4.300444 h 1.77208 v 0.889748 z"
               style="font-weight:bold;line-height:2;font-family:Quantico;-inkscape-font-specification:'Quantico Bold'"
               id="path212" /><path
               d="m -508.00241,21.418718 h 1.03804 v 4.730489 l -0.86009,0.496775 h -2.32076 l -0.86009,-0.496775 v -4.730489 h 1.03804 v 4.263372 h 1.96486 z"
               style="font-weight:bold;line-height:2;font-family:Quantico;-inkscape-font-specification:'Quantico Bold'"
               id="path213" /><path
               d="m -501.33673,26.60891 v -3.425527 h -0.0148 l -1.1715,3.425527 h -0.98614 l -1.17891,-3.470014 h -0.0148 v 3.470014 h -1.00097 v -5.190192 h 1.37911 l 1.30496,3.818498 h 0.0148 l 1.29755,-3.818498 h 1.37169 v 5.190192 z"
               style="font-weight:bold;line-height:2;font-family:Quantico;-inkscape-font-specification:'Quantico Bold'"
               id="path214" /><path
               d="m -495.40509,23.546696 -0.64507,0.370728 v 0.01483 l 0.64507,0.370727 v 1.809153 l -0.86009,0.496776 h -2.81012 v -5.190192 h 2.81012 l 0.86009,0.496775 z m -2.63217,0.823017 v 1.349449 h 1.59413 v -1.349449 z m 0,-2.061248 v 1.1715 h 1.59413 v -1.1715 z"
               style="font-weight:bold;line-height:2;font-family:Quantico;-inkscape-font-specification:'Quantico Bold'"
               id="path215" /><path
               d="m -494.14462,26.60891 v -5.190192 h 1.03803 v 5.190192 z"
               style="font-weight:bold;line-height:2;font-family:Quantico;-inkscape-font-specification:'Quantico Bold'"
               id="path216" /><path
               d="m -490.80808,23.250114 v 3.358796 h -1.03803 v -5.190192 h 0.9713 l 2.2392,3.358795 h 0.0148 v -3.358795 h 1.03804 v 5.190192 h -0.97131 l -2.2392,-3.358796 z"
               style="font-weight:bold;line-height:2;font-family:Quantico;-inkscape-font-specification:'Quantico Bold'"
               id="path217" /><path
               d="m -484.46863,24.792342 v -0.889747 h 1.89071 v 2.246612 l -0.86009,0.496775 h -2.09832 l -0.86009,-0.496775 V 21.87842 l 0.86009,-0.496775 h 2.09832 l 0.86009,0.496775 v 1.060282 h -1.03804 v -0.66731 h -1.74242 v 3.484843 h 1.74242 v -0.963893 z"
               style="font-weight:bold;line-height:2;font-family:Quantico;-inkscape-font-specification:'Quantico Bold'"
               id="path218" /></g></g><g
           id="g4"
           transform="translate(170.47479,133.06577)"><path
             id="path191"
             style="fill:#a51d2d;fill-opacity:1;stroke:none;stroke-width:1.64716;stroke-linejoin:round;stroke-dashoffset:59.5276;paint-order:stroke fill markers;stop-color:#000000"
             d="m 132.60514,227.74033 v 0.84233 28.33987 h 2.54558 64.49943 2.54558 v -28.33987 -0.84233 h -2.54558 v 0.84233 h -64.49943 v -0.84233 z m 0.7121,0.65887 h 1.08986 v 1.04749 h -1.08986 z m 67.09927,0 h 1.08882 v 1.04749 h -1.08882 z m -64.40176,1.65675 h 62.20861 a 0.25,0.25 0 0 1 0.25012,0.25011 0.25,0.25 0 0 1 -0.25012,0.25012 h -62.20861 c -0.22494,0 -0.39687,0.17348 -0.39687,0.39842 v 22.49424 a 0.25,0.25 0 0 1 -0.2496,0.2496 0.25,0.25 0 0 1 -0.25012,-0.2496 V 230.9546 c 0,-0.49329 0.4033,-0.89865 0.89659,-0.89865 z m 8.87698,1.57458 a 0.25,0.25 0 0 1 0.2496,0.2496 v 21.4359 a 0.25,0.25 0 0 1 -0.2496,0.2496 0.25,0.25 0 0 1 -0.25012,-0.2496 v -21.4359 a 0.25,0.25 0 0 1 0.25012,-0.2496 z m 7.65225,0 a 0.25,0.25 0 0 1 0.25011,0.2496 v 21.4359 a 0.25,0.25 0 0 1 -0.25011,0.2496 0.25,0.25 0 0 1 -0.25011,-0.2496 v -21.4359 a 0.25,0.25 0 0 1 0.25011,-0.2496 z m 7.65225,0 a 0.25,0.25 0 0 1 0.25011,0.2496 v 21.4359 a 0.25,0.25 0 0 1 -0.25011,0.2496 0.25,0.25 0 0 1 -0.25012,-0.2496 v -21.4359 a 0.25,0.25 0 0 1 0.25012,-0.2496 z m 7.65224,0 a 0.25,0.25 0 0 1 0.25012,0.2496 v 21.4359 a 0.25,0.25 0 0 1 -0.25012,0.2496 0.25,0.25 0 0 1 -0.25011,-0.2496 v -21.4359 a 0.25,0.25 0 0 1 0.25011,-0.2496 z m 7.65225,0 a 0.25,0.25 0 0 1 0.25011,0.2496 v 21.4359 a 0.25,0.25 0 0 1 -0.25011,0.2496 0.25,0.25 0 0 1 -0.2496,-0.2496 v -21.4359 a 0.25,0.25 0 0 1 0.2496,-0.2496 z m 7.65276,0 a 0.25,0.25 0 0 1 0.2496,0.2496 v 21.4359 a 0.25,0.25 0 0 1 -0.2496,0.2496 0.25,0.25 0 0 1 -0.25011,-0.2496 v -21.4359 a 0.25,0.25 0 0 1 0.25011,-0.2496 z m 7.65225,0 a 0.25,0.25 0 0 1 0.24959,0.2496 v 21.4359 a 0.25,0.25 0 0 1 -0.24959,0.2496 0.25,0.25 0 0 1 -0.25012,-0.2496 v -21.4359 a 0.25,0.25 0 0 1 0.25012,-0.2496 z m -57.48849,23.40219 h 1.08986 v 1.04748 h -1.08986 z m 67.09927,0 h 1.08882 v 1.04748 h -1.08882 z" /><g
             id="g201"
             style="fill:#ffffff;fill-opacity:0.99382"
             transform="matrix(-1.7605221,0,0,1.7605221,-111.72986,186.90459)"><path
               id="path192"
               style="opacity:1;fill:#ffffff;fill-opacity:0.991986;stroke-width:0.032281;stroke-linejoin:round;stroke-dashoffset:59.5276;paint-order:stroke fill markers;stop-color:#000000"
               transform="scale(-1,1)"
               d="m 141.00124,27.404345 h 2.75615 v 0.199358 h -2.75615 z" /><g
               aria-label="4010 42G1 "
               transform="scale(-1,1)"
               id="g200"
               style="font-weight:900;font-size:1.05693px;line-height:0.9;font-family:'Source Sans Pro';-inkscape-font-specification:'Source Sans Pro Heavy';text-align:center;letter-spacing:0px;word-spacing:0px;text-anchor:middle;opacity:1;mix-blend-mode:hard-light;fill:#ffffff;fill-opacity:0.991986;stroke-width:0.0719832"><path
                 d="m 141.58384,25.965101 v 0.163824 h -0.14585 v -0.163824 h -0.3509 v -0.105693 l 0.36675,-0.470334 h 0.13 v 0.456594 h 0.0909 v 0.119433 z m -0.33293,-0.119433 h 0.18708 v -0.238866 h -0.002 l -0.18496,0.236752 z"
                 style="font-weight:bold;font-family:Quantico;-inkscape-font-specification:'Quantico Bold';text-align:start;text-anchor:start;fill:#ffffff;fill-opacity:0.991986"
                 id="path193" /><path
                 d="m 142.34589,26.063396 -0.1226,0.07081 h -0.28855 l -0.1226,-0.07081 v -0.608792 l 0.1226,-0.07081 h 0.28855 l 0.1226,0.07081 z m -0.38578,-0.552775 v 0.496757 h 0.23781 v -0.496757 z"
                 style="font-weight:bold;font-family:Quantico;-inkscape-font-specification:'Quantico Bold';text-align:start;text-anchor:start;fill:#ffffff;fill-opacity:0.991986"
                 id="path194" /><path
                 d="m 142.52557,25.636396 v -0.138458 l 0.19024,-0.108864 h 0.12684 v 0.61302 h 0.16911 v 0.126831 h -0.48619 v -0.126831 h 0.16911 v -0.462936 z"
                 style="font-weight:bold;font-family:Quantico;-inkscape-font-specification:'Quantico Bold';text-align:start;text-anchor:start;fill:#ffffff;fill-opacity:0.991986"
                 id="path195" /><path
                 d="m 143.67234,26.063396 -0.12261,0.07081 h -0.28854 l -0.1226,-0.07081 v -0.608792 l 0.1226,-0.07081 h 0.28854 l 0.12261,0.07081 z m -0.38578,-0.552775 v 0.496757 h 0.23781 v -0.496757 z"
                 style="font-weight:bold;font-family:Quantico;-inkscape-font-specification:'Quantico Bold';text-align:start;text-anchor:start;fill:#ffffff;fill-opacity:0.991986"
                 id="path196" /><path
                 d="m 141.58384,26.933681 v 0.163824 h -0.14585 v -0.163824 h -0.3509 v -0.105693 l 0.36675,-0.470334 h 0.13 v 0.456594 h 0.0909 v 0.119433 z m -0.33293,-0.119433 h 0.18708 v -0.238866 h -0.002 l -0.18496,0.236752 z"
                 style="font-weight:bold;font-family:Quantico;-inkscape-font-specification:'Quantico Bold';text-align:start;text-anchor:start;fill:#ffffff;fill-opacity:0.991986"
                 id="path197" /><path
                 d="m 141.96011,26.970674 h 0.34879 v 0.126831 h -0.49676 v -0.34773 l 0.1226,-0.07081 h 0.22619 V 26.48449 h -0.20082 v 0.09512 h -0.14797 v -0.151141 l 0.1226,-0.07081 h 0.25155 l 0.12261,0.07081 v 0.306509 l -0.12261,0.07081 h -0.22618 z"
                 style="font-weight:bold;font-family:Quantico;-inkscape-font-specification:'Quantico Bold';text-align:start;text-anchor:start;fill:#ffffff;fill-opacity:0.991986"
                 id="path198" /><path
                 d="m 142.75281,26.838558 v -0.126832 h 0.26951 v 0.32025 l -0.1226,0.07081 h -0.29911 l -0.1226,-0.07081 v -0.608792 l 0.1226,-0.07081 h 0.29911 l 0.1226,0.07081 v 0.151141 h -0.14797 v -0.09512 h -0.24837 v 0.496757 h 0.24837 v -0.1374 z"
                 style="font-weight:bold;font-family:Quantico;-inkscape-font-specification:'Quantico Bold';text-align:start;text-anchor:start;fill:#ffffff;fill-opacity:0.991986"
                 id="path199" /><path
                 d="m 143.19143,26.604976 v -0.138458 l 0.19025,-0.108864 h 0.12683 v 0.61302 h 0.16911 v 0.126831 h -0.48619 v -0.126831 h 0.16911 v -0.462936 z"
                 style="font-weight:bold;font-family:Quantico;-inkscape-font-specification:'Quantico Bold';text-align:start;text-anchor:start;fill:#ffffff;fill-opacity:0.991986"
                 id="path200" /></g></g><g
             id="g210"
             style="fill:#ffffff;fill-opacity:0.991986"
             transform="matrix(-1.7605221,0,0,1.7605221,-54.975217,204.85167)"><path
               id="path201"
               style="fill:#ffffff;fill-opacity:0.991986;stroke-width:0.032281;stroke-linejoin:round;stroke-dashoffset:59.5276;paint-order:stroke fill markers;stop-color:#000000"
               transform="scale(-1,1)"
               d="m 141.00124,27.404345 h 2.75615 v 0.199358 h -2.75615 z" /><g
               aria-label="6488 9084"
               transform="scale(-1,1)"
               id="g209"
               style="font-weight:900;font-size:1.05693px;line-height:0.9;font-family:'Source Sans Pro';-inkscape-font-specification:'Source Sans Pro Heavy';text-align:center;letter-spacing:0px;word-spacing:0px;text-anchor:middle;opacity:1;mix-blend-mode:hard-light;fill:#ffffff;fill-opacity:0.991986;stroke-width:0.0719832"><path
                 d="m 141.2879,25.510621 v 0.212443 l 0.0751,-0.04333 h 0.15642 l 0.12261,0.07081 v 0.312852 l -0.12261,0.07081 h -0.25683 l -0.12261,-0.07081 v -0.608792 l 0.12261,-0.07081 h 0.25683 l 0.12261,0.07081 v 0.151141 h -0.14797 v -0.09512 z m 0,0.295941 v 0.200816 h 0.20611 v -0.200816 z"
                 style="font-weight:bold;font-family:Quantico;-inkscape-font-specification:'Quantico Bold';text-align:start;text-anchor:start;fill:#ffffff;fill-opacity:0.991986"
                 id="path202" /><path
                 d="m 142.26556,25.965101 v 0.163824 h -0.14585 v -0.163824 h -0.3509 v -0.105693 l 0.36675,-0.470334 h 0.13 v 0.456594 h 0.0909 v 0.119433 z m -0.33293,-0.119433 h 0.18708 v -0.238866 h -0.002 l -0.18496,0.236752 z"
                 style="font-weight:bold;font-family:Quantico;-inkscape-font-specification:'Quantico Bold';text-align:start;text-anchor:start;fill:#ffffff;fill-opacity:0.991986"
                 id="path203" /><path
                 d="m 142.64183,26.007378 h 0.21667 v -0.197646 h -0.21667 z m 0,-0.324477 h 0.21667 v -0.17228 h -0.21667 z m 0.24204,0.451309 h -0.28432 l -0.10569,-0.07081 v -0.26318 l 0.0919,-0.05285 v -0.0021 l -0.0919,-0.05285 v -0.237809 l 0.1226,-0.07081 h 0.26741 l 0.1226,0.07081 v 0.237809 l -0.0919,0.05285 v 0.0021 l 0.0919,0.05285 v 0.263176 z"
                 style="font-weight:bold;font-family:Quantico;-inkscape-font-specification:'Quantico Bold';text-align:start;text-anchor:start;fill:#ffffff;fill-opacity:0.991986"
                 id="path204" /><path
                 d="m 143.33412,26.007378 h 0.21667 v -0.197646 h -0.21667 z m 0,-0.324477 h 0.21667 v -0.17228 h -0.21667 z m 0.24203,0.451309 h -0.28431 l -0.10569,-0.07081 v -0.26318 l 0.0919,-0.05285 v -0.0021 l -0.0919,-0.05285 v -0.237809 l 0.1226,-0.07081 h 0.2674 l 0.12261,0.07081 v 0.237809 l -0.092,0.05285 v 0.0021 l 0.092,0.05285 v 0.263176 z"
                 style="font-weight:bold;font-family:Quantico;-inkscape-font-specification:'Quantico Bold';text-align:start;text-anchor:start;fill:#ffffff;fill-opacity:0.991986"
                 id="path205" /><path
                 d="m 141.49401,26.975958 v -0.212442 l -0.0751,0.04333 h -0.15642 l -0.12261,-0.07081 v -0.312851 l 0.12261,-0.07081 h 0.25683 l 0.12261,0.07081 v 0.608792 l -0.12261,0.07081 h -0.25683 l -0.12261,-0.07081 v -0.151141 h 0.14797 v 0.09512 z m 0,-0.29594 v -0.200817 h -0.20611 v 0.200817 z"
                 style="font-weight:bold;font-family:Quantico;-inkscape-font-specification:'Quantico Bold';text-align:start;text-anchor:start;fill:#ffffff;fill-opacity:0.991986"
                 id="path206" /><path
                 d="m 142.3554,27.031976 -0.1226,0.07081 h -0.28854 l -0.12261,-0.07081 v -0.608792 l 0.12261,-0.07081 h 0.28854 l 0.1226,0.07081 z m -0.38578,-0.552775 v 0.496757 h 0.23781 v -0.496757 z"
                 style="font-weight:bold;font-family:Quantico;-inkscape-font-specification:'Quantico Bold';text-align:start;text-anchor:start;fill:#ffffff;fill-opacity:0.991986"
                 id="path207" /><path
                 d="m 142.68305,26.975958 h 0.21667 v -0.197645 h -0.21667 z m 0,-0.324477 h 0.21667 v -0.17228 h -0.21667 z m 0.24204,0.451309 h -0.28432 l -0.10569,-0.07081 V 26.7688 l 0.0919,-0.05285 v -0.0021 l -0.0919,-0.05285 v -0.237809 l 0.1226,-0.07081 h 0.26741 l 0.1226,0.07081 V 26.661 l -0.0919,0.05285 v 0.0021 l 0.0919,0.05285 v 0.263176 z"
                 style="font-weight:bold;font-family:Quantico;-inkscape-font-specification:'Quantico Bold';text-align:start;text-anchor:start;fill:#ffffff;fill-opacity:0.991986"
                 id="path208" /><path
                 d="m 143.67128,26.933681 v 0.163824 h -0.14586 v -0.163824 h -0.3509 v -0.105693 l 0.36675,-0.470334 h 0.13001 v 0.456594 h 0.0909 v 0.119433 z m -0.33294,-0.119433 h 0.18708 v -0.238866 h -0.002 l -0.18497,0.236752 z"
                 style="font-weight:bold;font-family:Quantico;-inkscape-font-specification:'Quantico Bold';text-align:start;text-anchor:start;fill:#ffffff;fill-opacity:0.991986"
                 id="path209" /></g></g><path
             id="path210"
             style="fill:none;fill-opacity:0.991986;stroke:#f9f9f9;stroke-width:0.5;stroke-linecap:round;stroke-linejoin:round;stroke-dasharray:none;paint-order:markers fill stroke;stop-color:#000000"
             d="m 199.34676,231.85882 c 0,1.3824 0,22.42282 0,22.42282 0,0.35912 -0.28912,0.64823 -0.64824,0.64823 h -62.20885"
             sodipodi:nodetypes="cssc" /><g
             aria-label="DAYS "
             id="g222"
             style="font-weight:900;font-size:7.2603px;line-height:0;font-family:'Source Sans Pro';-inkscape-font-specification:'Source Sans Pro Heavy';letter-spacing:0px;word-spacing:0px;mix-blend-mode:hard-light;fill:#ffffff;stroke-width:0.181509"
             transform="matrix(1.5915343,0,0,1.5915343,960.86948,175.08121)"><path
               d="m -512.6624,44.589312 -0.84219,0.48644 h -3.11467 v -5.08221 h 3.11467 l 0.84219,0.48644 z m -2.94042,-3.724534 v 3.339738 h 1.92398 v -3.339738 z"
               style="font-weight:bold;line-height:2;font-family:Quantico;-inkscape-font-specification:'Quantico Bold'"
               id="path219" /><path
               d="m -509.07582,39.993542 1.81507,5.08221 h -1.00192 l -0.3848,-1.096305 h -1.9022 l -0.38479,1.096305 h -1.00192 l 1.81507,-5.08221 z m -0.53001,1.277813 -0.6389,1.836856 h 1.28507 l -0.63165,-1.836856 z"
               style="font-weight:bold;line-height:2;font-family:Quantico;-inkscape-font-specification:'Quantico Bold'"
               id="path220" /><path
               d="m -505.845,45.075752 v -2.170829 l -1.63357,-2.911381 h 1.10357 l 1.03096,1.902199 h 0.0145 l 1.03822,-1.902199 h 1.10357 l -1.64083,2.918641 v 2.163569 z"
               style="font-weight:bold;line-height:2;font-family:Quantico;-inkscape-font-specification:'Quantico Bold'"
               id="path221" /><path
               d="m -502.46171,42.498346 v -2.054665 l 0.84219,-0.48644 h 1.83686 l 0.84219,0.48644 v 0.96562 h -1.01644 v -0.580824 h -1.48836 v 1.21247 h 1.66261 l 0.84219,0.48644 v 2.098227 l -0.84219,0.48644 h -1.90946 l -0.8422,-0.48644 v -0.96562 h 1.01644 v 0.580824 h 1.56097 v -1.256032 h -1.66261 z"
               style="font-weight:bold;line-height:2;font-family:Quantico;-inkscape-font-specification:'Quantico Bold'"
               id="path222" /></g><path
             style="fill:#ffffff;fill-opacity:1;stroke:none;stroke-width:4;stroke-linecap:round;stroke-linejoin:round;stroke-dasharray:none;stroke-opacity:1;paint-order:markers fill stroke;stop-color:#000000"
             d="m 170.25762,238.99545 25.64547,-2.59571 0.79065,8.48527 -25.63048,3.74551 z"
             id="path223" /><path
             id="path224"
             style="mix-blend-mode:normal;fill:#000000;fill-opacity:1;stroke:none;stroke-width:1.75618;stroke-linejoin:round;stroke-opacity:1;stop-color:#000000"
             d="m 168.6382,238.2795 1.38504,11.79161 28.51556,-3.34945 -1.38504,-11.79161 z m 22.29748,-0.0173 2.36858,-0.27822 1.1323,0.48901 0.24161,2.05694 -0.7417,0.55072 0.002,0.0204 0.84902,0.36298 0.26743,2.27675 -0.98837,0.73629 -2.36858,0.27821 -1.13313,-0.488 -0.15357,-1.30743 1.28009,-0.15036 0.0967,0.82277 1.92981,-0.22668 -0.20097,-1.71096 -1.60054,0.188 -0.12879,-1.09646 1.60054,-0.188 -0.17504,-1.49015 -1.92981,0.22667 0.0966,0.82279 -1.28009,0.15036 -0.15358,-1.30745 z m -12.02551,1.41331 2.49659,-0.29325 1.13221,0.48815 0.61865,5.2668 -0.98819,0.73809 -2.49658,0.29325 -1.13231,-0.48902 -0.61864,-5.2668 z m 6.17788,-0.67995 2.17611,-0.2556 1.13308,0.48802 0.3115,2.65197 -0.98925,0.73643 -1.9572,0.22989 0.16768,1.42749 3.01831,-0.35454 0.12889,1.09732 -4.29837,0.50489 -0.35339,-3.0086 0.98917,-0.73733 1.95719,-0.22989 -0.19766,-1.68274 -1.73827,0.20418 0.0967,0.82277 -1.28006,0.15036 -0.15357,-1.30741 z m -12.02549,1.41331 2.177,-0.25571 1.13211,0.48724 0.31161,2.65285 -0.98829,0.73721 -1.95628,0.22979 0.16746,1.42571 3.01654,-0.35433 0.12889,1.09734 -4.29749,0.50478 -0.35329,-3.00776 0.98816,-0.73808 1.95719,-0.22989 -0.19765,-1.68265 -1.73646,0.20397 0.0966,0.82278 -1.28096,0.15046 -0.15357,-1.30743 z m 6.19546,0.33824 0.50478,4.29745 2.05866,-0.24181 -0.50478,-4.29746 z"
             sodipodi:nodetypes="cccccccccccccccccccccccccccccccccccccccccccccccccccccccccccccccccccccccccccccccccc" /></g></g></g></g></svg>
